<svg id="Layer_1" data-name="Layer 1" xmlns="http://www.w3.org/2000/svg" viewBox="0 0 1920 1080"><defs><style>.cls-1{fill:#fec701;}</style></defs><title>Artboard 1</title><path class="cls-1" d="M372.1,858.28V219.4c3.43-2.35,2.56-6.28,3.1-9.48C392.53,106.16,482.11,30,587.28,29.93q293-.11,586.07,0A214.44,214.44,0,0,1,1197,31.17c108.57,12.08,191.23,104.22,191.28,213.67q.11,293.91,0,587.83a215.19,215.19,0,0,1-161.72,208.49c-9.76,2.51-19.66,4.46-29.5,6.68H559.9c-2.42-3.38-6.37-2.42-9.57-3-90.57-16.6-160-86.78-175.15-177.08C374.64,864.57,375.52,860.64,372.1,858.28ZM783.39,435.57c-24.28,0-48.59.8-72.82-.32-13.11-.6-20.36,4.43-26.49,15.31-24.54,43.51-49.75,86.63-74.56,130q-28.5,49.79-56.58,99.84c-7.14,12.78-2.32,20.32,11.95,20.25,50.9-.25,101.79-.32,152.68-.7,7.63-.06,12.08,2.72,15.91,9.53,16.88,30,34.46,59.71,51.57,89.63,2.2,3.84,4.72,5.14,9,5.15,52.64.08,105.29.37,157.93.49,9.87,0,12.67-4.92,7.53-13.32C922.47,730.86,889.19,668.15,854.86,606c-2.86-5.19-6.56-7.75-12.56-7.59-11.11.31-22.23.48-33.34.28-11.68-.21-18.4-10.27-14.48-21.32a43.1,43.1,0,0,1,3.62-7q35.74-61.83,71.5-123.66c5.22-9.06,4-11.17-6.35-11.19Q823.32,435.52,783.39,435.57Zm99.46-160v-.88c-26.3,0-52.61-.16-78.92.07-12.32.1-15.43,6.42-9.2,17,13.91,23.66,27.8,47.34,41.43,71.16q59.63,104.13,119,208.39c9.1,16,2.66,27-15.62,27.16-7.31.07-14.65.28-21.91-.38-7.67-.69-12.57,1.83-16.16,8.84-4.52,8.82-10.14,17.06-15.08,25.67-1.93,3.36-5.83,6.58-3,11,2.51,3.89,6.88,2.53,10.53,2.52,50.87-.12,101.75-.42,152.62-.44,8.24,0,13.44-3.23,17.57-10.41,38.75-67.31,77.81-134.43,116.62-201.71,7-12.12,15-23.74,20.21-36.81,4-9.93.82-14.89-9.52-15-51.74-.48-103.48-.94-155.22-.94-6.85,0-10.71-2.09-14-7.87-17-30.28-34.49-60.33-51.49-90.64-2.78-5-5.79-7-11.59-6.93C933.73,275.74,908.29,275.56,882.85,275.56Z"/></svg>