<svg xmlns="http://www.w3.org/2000/svg" viewBox="0 0 735.32 297.78">
  <defs>
    <style>
      .cls-1 {
        opacity: 0.5;
      }

      .cls-2, .cls-3 {
        fill: none;
        stroke-miterlimit: 10;
      }

      .cls-2 {
        stroke: #fff;
      }

      .cls-3 {
        stroke: #ffc50f;
      }

      .cls-4 {
        fill: #ffc50f;
      }
    </style>
  </defs>
  <g class="cls-1">
    <polyline class="cls-2" points="26.3 37.77 26.3 47.39 39.66 52.84 54.3 47.05 54.3 37.35"/>
  </g>
  <g>
    <g>
      <polyline class="cls-3" points="343.25 216.22 393.25 243.59 393.25 296.97 343.25 271.63 343.25 217.91 393.25 187.5 439.87 215.21 439.87 235.82"/>
      <line class="cls-3" x1="302.37" y1="223.32" x2="343.25" y2="224.67"/>
      <line class="cls-3" x1="307.78" y1="240.88" x2="314.53" y2="240.88"/>
      <line class="cls-3" x1="319.6" y1="240.88" x2="343.25" y2="240.88"/>
      <line class="cls-3" x1="295.95" y1="261.49" x2="305.75" y2="261.49"/>
      <line class="cls-3" x1="311.16" y1="261.49" x2="343.25" y2="261.49"/>
      <line class="cls-3" x1="439.87" y1="242.23" x2="439.87" y2="250.01"/>
      <polyline class="cls-3" points="439.87 256.42 439.87 270.61 393.25 296.97"/>
      <line class="cls-3" x1="393.25" y1="243.59" x2="439.87" y2="215.21"/>
      <line class="cls-3" x1="364.92" y1="204.73" x2="410.08" y2="233.34"/>
      <line class="cls-3" x1="377.41" y1="197.14" x2="421.21" y2="226.57"/>
      <polyline class="cls-3" points="410.08 235.14 410.08 252.03 424.33 242.24 424.33 226.56"/>
    </g>
    <g>
      <polyline class="cls-3" points="450.01 41.44 450.01 44.82 450.01 69.82 483.79 84.01 522.65 69.48 522.65 40.09"/>
      <polyline class="cls-3" points="483.79 84.01 483.79 36.04 474.67 49.21 439.87 36.04 451.7 20.83 483.79 9.01 519.94 21.17 529.4 36.38 494.61 47.86 483.79 36.04"/>
      <polyline class="cls-3" points="451.7 20.83 483.79 36.04 519.94 21.17"/>
    </g>
    <line class="cls-3" x1="450.01" y1="40.09" x2="450.01" y2="45.72"/>
    <path class="cls-3" d="M732.88,343.94v5.86c0-7-.68-3-.68-3l2.41-.93" transform="translate(-249.09 -307.91)"/>
    <circle class="cls-4" cx="275.96" cy="10.42" r="10.42"/>
    <circle class="cls-4" cx="18.5" cy="178.64" r="18.5"/>
    <circle class="cls-4" cx="586.2" cy="183.07" r="4.43"/>
    <circle class="cls-4" cx="731.52" cy="24.63" r="3.8"/>
  </g>
</svg>
