<svg id="Layer_1" data-name="Layer 1" xmlns="http://www.w3.org/2000/svg" viewBox="0 0 1920 1080"><defs><style>.cls-1{fill:#f9b100;}.cls-2{fill:#256639;}.cls-3{fill:#731db0;}.cls-4{fill:#fcfdfc;}.cls-5{fill:#fefefe;}</style></defs><title>Artboard 1</title><path class="cls-1" d="M1406,369.78c17.49,5.15,33.46,13.55,46.86,25.7,11.42,10.36,23.09,20.54,33,32.55s21.11,23.38,31.72,35a21,21,0,0,1,2.22,2.69c10.22,16.17,24.69,28.83,36.23,43.89,21.77,28.41,45.88,55.21,61.83,87.7,5.54,11.3,12,22.43,14.11,35,2.78,16.7,7.13,33.38,4.19,50.56-3,17.37-6.54,34.68-13.53,50.92-4,9.23-9,18.11-16.46,25.3a30.38,30.38,0,0,0-5.64,7c-3.92,7.09-10.28,11.63-16.29,16.59-7.61,6.29-15,12.92-22.83,18.84-8.51,6.4-18,11.31-27.38,16.39-20.77,11.32-42.79,19.6-65.1,27.46-17.21,6.07-34.42,12.14-51.77,17.82-7.87,2.57-15.65,5.44-23.54,8-6.77,2.15-13.56,4.33-20.49,5.82-3.39.73-5.74,3-9,4-21.13,6.26-42.58,11.47-63.38,18.87a44.25,44.25,0,0,1-10.15,2.24c-4.28.45-8.48,1.26-12.35,3.51a26.77,26.77,0,0,1-12.29,3.75,27.36,27.36,0,0,1-.75-3.41c-2.28-24.19-5.74-48.22-9-72.3-5.41-39.92-12.28-79.55-21.09-118.84-6.72-30-13.92-59.91-21.07-89.82-.9-3.8-.28-5.46,3.75-6.51,13.44-3.48,26-9.4,38.11-16,14.73-8,27.33-18.34,35.82-33.1,7.32-12.73,5.93-19.41-6-28-2.43-1.75-5.07-3.19-7.54-4.89-16.29-11.24-29.06-25.81-39.61-42.41-15.28-24-27.85-49.26-32.13-77.83-1.44-9.66-1.36-19.32,3.76-28.17,3.37-5.8,5.27-6.58,11.67-5.36,20.81,4,41.87,5.35,63,6.06,23.35.79,46.56-1.08,69.68-4C1372.53,382.61,1390.2,379.28,1406,369.78Zm-2.73,287.73a121.39,121.39,0,0,0-15.62-23,64.44,64.44,0,0,0-21.07-17.17c-23.75-11.63-52.94.92-61.6,25.93-5.29,15.29-5,30.62-.55,46.1,2.66,9.31-.2,13-9.84,12.72-9.87-.29-19.08,2-28.11,5.66s-13.09,11.57-10.62,20.89c2.13,8,7.73,12.76,15.29,15,21.37,6.34,43.49,4.6,65.34,5.36,13.75.48,27.52.5,41.3.17,17.31-.42,34.57-1.21,51.79-3.09a525.22,525.22,0,0,0,54.14-8.45c10.17-2.2,20.44-4.93,29.3-10.75,6.34-4.17,13-8.22,17.09-15,1-1.7,2-3.28,1.28-5.54-2.54-8-7.9-12.65-16.09-14.42-8-1.73-16.14-2.12-24.26-2.67-1-.07-2.42.46-2.91-1.12A97.27,97.27,0,0,0,1499.64,669a31.94,31.94,0,0,0-1.44-28.37,44.94,44.94,0,0,0-25.4-21.37c-18.88-6.44-36.13-4.38-51.87,8.75C1411.79,635.65,1407,645.57,1403.26,657.51Z"/><path class="cls-2" d="M1406,369.78c-15.79,9.5-33.46,12.83-51.33,15.05-23.12,2.88-46.33,4.75-69.68,4-21.12-.71-42.18-2.06-63-6.06-6.4-1.22-8.3-.44-11.67,5.36-5.12,8.85-5.2,18.51-3.76,28.17,4.28,28.57,16.85,53.78,32.13,77.83,10.55,16.6,23.32,31.17,39.61,42.41,2.47,1.7,5.11,3.14,7.54,4.89,11.88,8.57,13.27,15.25,6,28-8.49,14.76-21.09,25.15-35.82,33.1-12.16,6.56-24.67,12.48-38.11,16-4,1.05-4.65,2.71-3.75,6.51,7.15,29.91,14.35,59.81,21.07,89.82,8.81,39.29,15.68,78.92,21.09,118.84,3.27,24.08,6.73,48.11,9,72.3a27.36,27.36,0,0,0,.75,3.41c.26,14.34,2.55,28.52,3.49,42.81A60.52,60.52,0,0,1,1269,966c-.24,1.44-.25,3.52-1.79,3.76-2.15.32-2.31-2.08-2.79-3.51-2.51-7.46-4.23-15.22-4-23,.31-12.38-1.33-24.58-2.6-36.79-3.24-31.13-6.79-62.24-11.64-93.16-5.07-32.35-11.36-64.5-17.81-96.61-7.87-39.16-18.74-77.55-29.19-116.06-3.78-13.89-12-22.74-25.13-28.11-18.77-7.71-37.86-13.72-58.4-13.4a127.38,127.38,0,0,0-12.92,1.2,14.27,14.27,0,0,0-8.28,4.08C1083,575.15,1071.28,585.59,1058,594c-28.64,18.18-58.82,24.08-91,9.87-8.24-3.63-14.67-9.68-20.87-16s-11.89-13-18.59-18.84c-11.91-10.29-21.87-10.64-34-.8-19.23,15.64-32.52,35.65-43.64,57.6-15.52,30.64-22.48,63.83-30.81,96.66-12.83,50.56-31.22,99.13-52.78,146.55-4.32,9.51-8.74,19-13.12,28.45l-.12,1.16,1.17-.4c17.89-5.14,35.36-11.49,52.93-17.61,26.88-9.38,42.4-28.44,49.79-55.33,7.5-27.28,13.53-54.87,19-82.61,1-5,1.22-10.34,5.74-13.88,3.5-.31,4.12,2,4.23,4.7a65.77,65.77,0,0,1-1.5,14.34c-5.17,28.47-13.52,56.13-21.66,83.83-2.57,8.73-6.11,17.16-7.93,26.11a4.65,4.65,0,0,0-.53.45s.12.24.19.36L855,858a124,124,0,0,0,20.73-9.67c1.15-.63,3.4-.75,1.34-2.88l.32,0,0-.32c-.39,1.73.55,2,1.94,1.76,8.09-1.4,14.81-10.14,14.28-18.45a73.5,73.5,0,0,1,.16-10.9c1.72-20.12,4.16-40.2,3.32-60.47.86-1.25.7-2.66.63-4A52.74,52.74,0,0,1,901,740.47c2.12-5,5.85-7.65,11.26-7.36,8.2.44,16.28-1.2,24.41-1.23,21.75-.08,43.28-3.22,65-4.17,14.42-.64,28.83-2.24,43.26-3.12,10-.6,19.91-1.21,29.86-1.64,4.3-.18,6.5,1,5.9,6.49-.62,5.68.52,11.59,1.24,17.35,1.38,11.22,1.19,22.59,3.26,33.74,0,1-.07,2,0,3,1.53,16.05,3.57,32.07,4.48,48.15.79,13.94,2.12,27.76,4.07,41.57,1.22,8.7-1.54,11.92-10.12,13.34a37.44,37.44,0,0,1-5,.42c-12,.37-23.87,2.13-35.77,3.27-21.55,2.07-43.09,3.69-64.7,4.55-9.09.36-18,2.22-27.26,1.7-3.86-.21-8.16-.75-11.83,3.66-13.26,16-29.11,29.25-45.88,41.39a586.42,586.42,0,0,1-76.11,46.62,328.85,328.85,0,0,1-77.59,23.26c-61.31,10.22-121.94,9-181.39-11.21-24.42-8.3-46-21.65-65.6-38.07-21.8-18.29-31.31-42.79-32.44-70.87-.52-12.89,1.44-25.56,3-38.27a10,10,0,0,0,.74-1.84,292.41,292.41,0,0,1,15.48-53.59c17.36-44.05,33.31-88.66,51.93-132.22,1.36-3.18.14-3.54-2.51-3.76-13.09-1.12-26.19-2.32-39.28-3.52-31.3-2.85-62.75-4.3-93.86-9.18-11.91-1.87-23.62-4.23-33.68-11.42-6.57-4.7-8.88-10.84-7.09-17.72a28.71,28.71,0,0,1,5.86-10.9c15.15-18.52,35.09-28.58,58.27-32.87,8.58-1.59,17.33-1.75,26.56-2.08-1-2.13-1.66-3.6-2.31-5.1-3.85-8.75-5.42-17.82-3.33-27.27,3.75-16.93,14.64-28.42,28.88-37.14a79.4,79.4,0,0,1,40.06-11.57,59,59,0,0,1-7.76-35c2.71-35.23,23.32-52.4,53.8-57.9,7.9-1.42,13.64-4.86,17.72-11.44,4.73-7.63,7.07-16.19,8.43-24.89,3.92-25.17,10.68-48.92,25.59-70.4,10.84-15.6,21.16-31.46,34-45.5,14.76-13.94,29.9-27.38,47.23-38.15,15.37-9.55,31.73-16.94,49.37-20.73,14.87-3.2,29.38-.12,43.32,5.74,9.26,3.9,17.46,9.5,25.6,15.24,17,14.43,30.88,31.25,39.8,51.82,10.2,23.53,14.68,47.36,2.64,71.78a7.7,7.7,0,0,0-.51,3.4c.07,5.67.13,11.33.35,17,1,26.48,2.15,52.95-1.33,79.34-3.17,24.1-10.26,46.77-25,66.52-3.67,4.92-7.39,9.85-12.83,13.11q-7.92,4.76-15.63,9.85a54.62,54.62,0,0,0-11.72,10c-4.69,5.57-3.67,9.26,3.22,11.34a54.71,54.71,0,0,0,14.8,2c14.34.32,28.61-1.17,42.91-1.77,38.61-1.63,77.23-2.86,115.85-4.18,8.25-.28,10-2.3,8.24-10.54a20.68,20.68,0,0,0-2.77-6.36,34.4,34.4,0,0,0-10.83-10.94c-15.94-10-24.55-25.35-31.21-42.11-11.41-28.68-10.21-57.95-3.6-87.39a230.78,230.78,0,0,1,10.14-31.82c.49-1.26,2.4-4.81-1.78-3.52-7.46,2.31-14.48.77-21.55-1.33-14.79-4.38-25.62-13-28.55-28.85-2.82-15.22,2.63-27.75,14.28-37.75,6.3-5.4,13.86-8.09,22-9.9-11-20.42-13.78-40.82-3.28-61.87a164.07,164.07,0,0,1,24.56-31.76c13.22-13.08,27.84-24.35,45.82-30.26,17.72-5.82,33.26-2.85,45.11,12.51,2.41,3.12,3.59.91,4.93-.47,9.33-9.57,19.34-18.13,31.19-24.64,22.29-12.26,45.11-12.5,68.46-4.12,11.33,4.06,19,12.7,25.35,22.45,5.56,8.49,10.72,17.23,15.94,25.93,1.39,2.32,2.5,3.54,5.77,2.86,32.26-6.69,67.12,16.89,78.87,40.33,4.87,9.72,3.39,19.38,1.94,29.28-.91,6.25-1.95,12.5-2.5,18.79-.45,5,.85,6.14,5.72,5.13,24.13-5,47.35-1.43,70,7.38,8.9,3.46,17.06,8.25,23.69,15.3,8.54,9.09,11.36,20.06,10.29,32.56,10.2-3,20.12-4.76,30.37-2.93,14.72,2.63,23.46,14.91,21,29.44C1415,361.89,1410.36,365.71,1406,369.78ZM919.51,861.25c-3.64,2.36-7.3,4.69-10.12,8.08a29.85,29.85,0,0,0-6.64,6,3.67,3.67,0,0,1-4.47,1.15,4.75,4.75,0,0,1-2.95-3.76c-.45-2.37.71-4.18,2.4-5.69,3-2.72,4.84-6.25,7.09-9.65-1.44-.48-2.22-.27-2.86.34-4.55,4.35-10,7.6-14.35,12.24-1.7,1.82-3.9,2.87-6.16.92s-2.24-4.07-.4-6.55c2.54-3.4,4.73-7.05,7.12-10.68-3.88-1.74-5.53,1.63-7.93,2.68-9.54,4.19-18.56,9.54-28.42,13-4.5,1.61-4.48,3.78-1.5,7.07,3.78,4.18,7.25,8.64,10.88,13a182.06,182.06,0,0,0,37.44,33.68c1.35.92,1.48.17,2.21-.46,6.9-6,14-11.77,20.44-18.3,9.13-9.25,17.55-19,23.18-30.88l.24-1.08-.82.5c-4.2.23-6.94,2.84-9.24,5.93a16.43,16.43,0,0,1-5.83,5.26c-2.61,1.3-5.32,1.62-7.23-.87s-.81-5.09,1.31-7.06,4.28-3.66,6.45-5.44c1.36-1.12,2.94-2.09,2.68-4.9-4.57,3.43-8.76,6.54-12.9,9.73-2.3,1.78-4.9,2.4-7.37,1s-2.18-3.88-1.5-6.25c3.71-2.21,7.25-4.61,10-8,.24-.32.75-.76.67-1C920.51,860.34,920,861.05,919.51,861.25Zm-174-287.2c16.71-1.84,31.57-8,45.47-19.1-7.26-.59-14.79,2.62-18.06-6,.21-4.92-2.9-9.42-2.39-14.14.55-5.08-1.86-5.15-5.42-4.84a67.32,67.32,0,0,1-20.66-1.89c-6.1-1.36-11.42-4.56-18.06-7.1,1.17,2.71,1.77,4.57,2.71,6.23,4.91,8.59,8.52,17.68,9.52,27.55.61,6.07-1.14,11.58-6.63,15.17-5.23,3.42-9.64,1-14.31-1.7-4-2.31-6.8-5.92-10.62-9,.34,3.24.69,5.85.85,8.47.08,1.25.2,2.08,1.61,2.64C721.13,574.91,733.09,576.45,745.46,574.05ZM706,384.05c4.09-1.24,8.13-2.69,12.29-3.65,4.75-1.1,9.4-1,12.6,3.62-.21,3.38-2.32,3.87-5.18,3.67C714,386.88,704.94,392.1,698,401c-2.31,2.93-4.51,4.74-7.75,2.83-3.5-2.06-1.94-5.06-.26-7.71l6.24-7.62c-7.42.84-9.4-1-9-8.66a104.32,104.32,0,0,0,.15-15.64l-8.24,15.36c-4.06,5-7.5,10.63-12.78,14.56-2.39,1.78-5,3.31-6.67-1-2.84-7.36-8.92-8.5-13.43-8-5.56.63-10.17,5.37-11.28,11.79-1.91,11.12,1.83,20.17,10.67,27.15,7.47,5.89,13,5.1,18.6-2.65l.3-.4c3.37-4.33,6.25-4.09,8.38.94,1.61,3.82,2.8,7.81,4.17,11.72,6.43,18.51,12.6,37.1,24.26,53.28,15.68,21.77,35.51,36.41,63.42,36.27a57.4,57.4,0,0,0,31.82-9.73c6.43-4.27,11.8-9.72,17-15.32,11.15-12,17.12-26.6,21.24-42.14C838,447,838.41,437.4,839.68,428c1.72-5.45,1.88-11.17,2.13-16.75,1.15-25.71-1.1-51.39-1.09-77.1,1.68-7.07-3.72-10.44-7.6-15.73-.52,7.76-1.14,14.4-4.39,20.39-3.77,7-8.6,7.22-13.44.91-2.76-3.6-3.92-7.95-6.11-13.51-.49,4.43-.7,7.34-1.16,10.21-.87,5.54-1,11.33-5.14,15.83-4.44,4.87-8.78,4.18-11.38-1.7-3-6.74-6.71-13.15-8.94-20.35-.48,9.13-4.21,17.33-6.43,25.9a12,12,0,0,1-10.47,8.76c-5,.2-7.52-3.15-9.33-7a39.37,39.37,0,0,1-2.72-8.5c-.79-3.8-1.14-7.69-1.68-11.54A244,244,0,0,0,743,361.6c-1.34,4.12-2.68,8.21-5.14,11.82A10,10,0,0,1,727,377.88c-4.09-.83-6.1-3.85-6.62-7.81s-.8-7.79-1.2-11.68c-3.66,9-7.07,17.85-13.58,25.1-.45.32-1.47.5-1,1.17S705.77,384.75,706,384.05Zm342,146,24.07-1c2.15.24,4.29.6,6.44.73,32.46,1.84,62.58,11.29,90.86,27.22,17.32,9.76,30.9,22.58,38,41.57,1.55,4.13,1.38,10.53,5.06,11.78,3.41,1.17,8.37-2,12.6-3.46,18.27-6.19,35.6-14.09,49-28.6,4.81-5.22,10-10.24,12.05-17.48,1.51-5.45.24-8.92-4.54-11.83a62.55,62.55,0,0,1-5.86-3.74c-10.52-8.12-20.73-16.38-28.76-27.36-8.71-11.91-18.74-22.82-25.3-36.29-5.21-10.71-12.49-20.34-15.79-32.07-5.94-21-8-42.59-7.16-64.23.86-23.7.6-47.29-2.86-70.71-4.18-28.32-12.86-54.79-32-77.17a108.86,108.86,0,0,0-34.43-26.75c-24.09-12-49.31-11.52-74.09-2.35a150.38,150.38,0,0,0-54.93,35.29c-13.71,13.8-27.06,27.87-38.21,44.36,20.42,3.29,40.48,1.39,60.48-.41,19.23-1.74,38.22-5.33,57.27-8.4,6.78-1.09,9.64,1.81,8.73,8.68-.71,5.28-1.54,10.54-2.15,15.83-3.16,27.44-3.94,54.81,2.48,82,2.84,12,6.21,23.84,13.33,34.17,2.47,3.58,5.09,7.13,9.88,8.87-.21-3.47-.28-6.47-.6-9.44-1.56-14.24-4.52-28.25-7.09-42.33-4.12-22.64-8-45.34-5.36-68.46.64-5.58-1.49-11.28,1-16.69,1.16-2.57,2.2-6,5.46-5.68,3.56.4,3,4.16,3.39,6.88a10.91,10.91,0,0,1,0,2.49c-1.57,14.65-1,29.31.19,43.93,1.08,13.43,2.06,26.93,4.27,40.2,2,11.93,5.73,23.55,8.4,35.38,1.28,5.67,1.64,10.69,9.64,11.85,8.2,1.19,9.8,9,10.68,16.18.07,10.31-4.62,18.55-11.45,25.72-8.34,8.74-21.71,14.41-32.23,7.4-1.88-1.25-2.61,0-3.51,1.19-3.42,4.7-6.76,9.46-10.28,14.08-9.47,12.37-18.29,25.36-31.84,33.94-1.88,1.19-4.17,2.16-4.84,4.69l-.41.51Zm-6.72,14.67c-.47-1.76-1-3.51-1.4-5.28-.83-3.49-2.38-5.23-6.24-3.3-5,2.5-10.44,2.86-16,3.08-14.58.57-28.28-2.64-41.78-9.17-1.26,6.41-2.6,12.51-2.94,18.84-.23,4.36-.19,9-4.41,12a15.61,15.61,0,0,1-5.81,1c-11.21.29-22.42.75-33.93,1.16.33,1,.34,1.55.62,1.85,9.58,10.08,18.86,20.69,30.71,28A86.45,86.45,0,0,0,1011,605.68c11.53-.63,22.49-5.2,32.8-10.56,11.35-5.9,21.47-13.67,31.24-21.87,4.79-4,10.07-7.59,13.9-13.35-13.07-2.71-26-5.33-39-4.92-5.44.17-6.67-1.92-7.6-6C1042,547.59,1041.66,546.16,1041.33,544.72ZM954,887.86c7.27-.12,14.53-.17,21.82-.59,25.45-1.49,50.81-3.75,76.17-6.23,8.44-.82,16.9-1.37,25.34-2.21,5.8-.57,7.93-2.77,7.27-7.27-2.6-17.82-3.2-35.8-4.62-53.72-1.86-23.4-3.38-46.84-5.57-70.21-1.36-14.53-5.14-17.09-19.77-15.37-.66.08-1.31.23-2,.32-7.91,1.09-15.81,3-23.74,3.11-21.83.3-43.51,2.65-65.26,4-15.13.92-30.17,3.18-45.35,3.07-8.12-.06-10.08,1.54-10.08,9.67,0,11.51-1.85,22.86-2.7,34.3-1.18,16.1-3.59,32.08-4.19,48.23-.33,1.25-.29,2.37,1.24,2.75,2.83.7,3.66,2.94,4,5.53,4.52-1.92,8.48-5.89,13.61-3.28,3.49,1.77,1.13,5.29,1.24,8.14,11.5-5.91,15.51-3.88,14.22,5.54,2.68-.34,5.18-2.91,8-1,3,2.1.58,5.65,1.93,8.45.84-.26,1.61-.53,2.39-.73,3-.78,6.16-2.92,8.89-.14s.85,6,.1,9a16,16,0,0,1-1.22,3.26c-2.55,5.15-5.15,10.28-7.78,15.52C950.11,888.89,952,888,954,887.86ZM923.16,437.74a71.15,71.15,0,0,0,2.53,16.2A98.5,98.5,0,0,0,944,490.35c15.31,19.15,34.26,31.73,57.83,38,22,5.84,40.3-1.31,56.16-16,13.71-12.7,24.52-27.84,34.23-43.75,2.71-4.44,5-4.94,9.37-1.91,7.6,5.3,16.25,4.42,22.74-2.21,5-5.14,7.81-11.5,9.82-18.23,1.33-4.47-1.29-7.93-4.35-10.34-3.5-2.75-4.19,2.2-6.35,3.32l-.44.24c-8.14,3-14.57-.5-20.54-5.45-6.91-5.71-10.76-13.71-13.86-21.66a186.48,186.48,0,0,1-12.8-64.63c-.37-18.57,2-36.86,3.62-55.24.28-3.23-.39-4.16-3.65-3.66-8.7,1.36-17.46,2.39-26.16,3.73-23.33,3.6-46.65,7.26-70.4,5.14-2.31-.2-4.66.12-7,.06-6.58-.16-10.44,3.66-13.15,9-1.34,2.66-2.39,5.48-3.57,8.22-2.55,3.08-1.68,4.5,2.16,5a42.24,42.24,0,0,1,14,4.81c3.28,1.69,5.94,4.07,3.66,7.8-2.06,3.36-5.17,1.72-7.8,0-.14-.09-.27-.18-.42-.26-12.34-7.14-19.43-5-25.21,8.23A247.6,247.6,0,0,0,931.15,371c-.36,1.26-2.06,2.73-.53,4.06s3.46,1.05,5.25.45c5.78-1.94,9.78-6,13.09-11,1.56-2.32,3.66-3.71,6.29-2.05s2.6,4.38,1.21,6.64c-4.49,7.32-14.84,18.24-26.09,15.75-3.28-.72-4.21,1-4.51,3.62-.39,3.45-.71,6.91-1.06,10.36C922.68,411.77,920.85,424.67,923.16,437.74ZM413.84,587A71,71,0,0,0,375,606.35c-2.53,2.85-5.34,5.5-7.52,8.59-5,7.14-2.88,14.46,4.87,18.34,13.3,6.66,27.77,8.88,42.23,10.76,11,1.43,22.1,2.25,33.18,2.61,11.31.38,22.55,1.44,33.8,2.3,17.09,1.29,34.17,2.8,51.2,4.69,7.17.79,8.65,1.1,11-5.78,2.72-8,7.27-14.77,11.35-21.92,7.19-12.59,15-24.86,25.61-34.74s22.66-18.44,37.65-22.43c-6.48-4.87-12.33-9.58-16.93-15.89-13.49-18.5-19.14-40.18-24.23-61.72a238.78,238.78,0,0,1-6.12-71.76c.61-8.74-3-11.6-12-10.23a74.16,74.16,0,0,0-26.58,9.26c-16.76,9.78-31.07,39.71-19.94,60a101.14,101.14,0,0,1,7,17c1.77,5.37.08,7.35-5.55,7.76-8,.57-16,.93-23.76,2.83-19.56,4.77-35.12,14.45-41,35-3.53,12.31-.2,23.33,8.26,32.81,2.23,2.5,6.56,4.34,4.68,8.38-2,4.39-6.6,2.63-10.32,2.44-.16,0-.32-.08-.49-.1C438.77,583.37,426.18,583.32,413.84,587Zm213.75-200c10.8-15.74,19.88-17.64,35.28-7,2.92,2,3.59-.32,4.6-1.61a102,102,0,0,0,16.45-31.69c3.15-9.63,3.68-19.92,7-29.53.76-2.21,1.18-4.71,4.27-6.37,2.79,10.89,2.54,21.54,2.69,32.13s0,21,0,31.45a54.61,54.61,0,0,0,8.43-13.66c5.14-11.46,7.74-23.66,10.66-35.77.78-3.21.81-6.68,2.68-9.54.94-1.44,1.67-3.71,3.91-3.28,1.78.35,2.27,2.31,2.72,3.9a48.1,48.1,0,0,1,1.44,18.33,116.28,116.28,0,0,0-.61,18.46c.15,3.43-1,8.85,2.61,9.57,2.78.56,4.21-4.89,5.23-8.09,3.17-10,6-20,9-30.07,1.61-5.42,3.26-10.84,6.21-15.72,1-1.65,2.41-3.75,4.71-2.67,1.78.83,3.52,2,3.88,4.61A166.14,166.14,0,0,1,760,335.3a31.36,31.36,0,0,0,.54,5.95c.64,3.61,1.36,8.5,5.44,8.45s4.84-4.89,5.21-8.56c1-9.93,1.84-19.87,2.72-29.82a27.17,27.17,0,0,1,2-8.72c.62-1.4,1.77-3.05,3.31-2.23s3.89.29,4.63,3q4,14.63,8.48,29.1c1.12,3.61,2,7.41,4.91,11.36,1.88-7.89,2.25-15,2.75-22.09.57-8,.72-16,2.47-23.82.31-1.37.51-3.32,2.25-3.54s2.42,1.52,3.14,2.81c2.75,5,4.46,10.37,6.23,15.74,1.29,3.94,2.49,7.92,4,11.79.68,1.76,1.41,4.28,3.8,4,2.79-.31,2.52-3.18,2.86-5.18a29.9,29.9,0,0,0,.17-6c-.22-7-.63-14-.7-21,0-2.39-.09-5.42,3.1-6.11s5,1.64,6.13,4.1a62.94,62.94,0,0,1,3.6,9.28c2.06,7.07,6.29,12.87,10.82,18.75-1.27-9.84.47-19.67-1.75-29.45-5-22-12.39-42.76-28.23-59.62a180.86,180.86,0,0,0-25.74-22.81,70.57,70.57,0,0,0-48.4-13.32c-16,1.34-30.61,7.83-44.21,15.86a243.67,243.67,0,0,0-54.35,43.58c-18.3,19.57-32.53,42-44.73,65.66a125.47,125.47,0,0,0-10.75,31.34c-1.6,7.44-4.24,14.66-5.41,22.22-8.06,52-6.62,103.17,13.14,152.7a63.79,63.79,0,0,0,18.29,25.76c1.71,1.42,3.36,3.22,6.37,3.48-2.41-8.13-3.57-16.38-8.2-23.5a11.76,11.76,0,0,1-1.8-6.65c0-2.46-.56-5.88,2.29-6.46s4,2.69,4.81,5c3.39,9.62,8.42,18.45,13.14,27.4,3.24,6.15,7,12.12,13.11,17.33.61-7.6-.89-13.91-2-20.25-1.75-10.32-4.83-20.44-4.7-31,0-2.29-.54-5.48,3-5.94,3.4-.43,3.78,2.44,4.61,4.82,4.65,13.32,9.17,26.7,14.66,39.72,2.12,5,5,9.43,9.86,12.48-2.22-9.63-1.4-19.66-5.16-28.91a50,50,0,0,1-3.55-13c-.2-1.72.07-3.37,1.82-4.29a4.14,4.14,0,0,1,4.65.7,12.13,12.13,0,0,1,3,3.95c3.18,6.4,6.37,12.8,9.28,19.32,3.33,7.44,6.29,15.06,13.6,19.7,1.22.78,2.49,2.12,4,1.19s1.55-2.93,1.25-4.54a108.84,108.84,0,0,0-2.56-11.17c-2.65-8.72-4.87-17.59-8.31-26.07-1-2.43-.87-4.93,2.19-6.27,3.32-1.46,3.47,1.51,4.48,3.13,7.29,11.77,15.07,23.17,25.64,32.32,1.8,1.56,3.92,4,6.53,2.63,2.76-1.46,2.06-4.57,1.74-7.22a56.16,56.16,0,0,0-8.26-23.3c-3.14-8.05-8.81-14.45-13.92-21.18-9.77-12.85-19.84-25.45-26.6-40.31a300.07,300.07,0,0,1-12.86-33.48c-.46-1.48-.44-3.93-3.42-2.11-8.83,5.39-17.15,3.4-25.14-2.12C627.45,421.73,620.69,403.59,627.59,387.06Zm765.91-19c5.13-2.05,11-2.7,14.13-8.34,5.25-9.59-.81-24.38-11.29-27.54a35.4,35.4,0,0,0-25.31,1.6c-3.5,1.55-7,3.13-10.5,4.62-2.92,1.23-4.51.06-4.7-3a49.41,49.41,0,0,1,.73-10.43c.68-4.51,2.64-9.08.07-13.64-3.6-6.4-7.32-12.73-13.78-16.74-9.07-5.62-18.43-10.55-29.1-12.59a184.8,184.8,0,0,0-34.15-3.27,156.77,156.77,0,0,0-31.74,3.4c-2.62.53-5.27,2.15-7.14-.8s-.3-5.73,1.74-7.68c7.86-7.52,9.68-17.7,10.22-27.39,1.15-20.53-7.15-37.73-24.56-48.8-17-10.84-36.16-12.77-55.69-7.2-9.7,2.77-10.81,2.14-10.53-7.74a29.46,29.46,0,0,0-2.58-12.12c-10.75-25.87-34.32-41.76-65.38-38.2-16.66,1.91-31.6,7.39-42.87,20.64a143.64,143.64,0,0,1-10.23,10.27c-3.25,3.1-6.48,6.27-10.49,8.42-4.89,2.64-8,1.44-9.25-4a14.44,14.44,0,0,0-4.52-7.53c-8.67-8.12-19.08-9.22-29.84-6.28-17.15,4.69-30.78,15.58-43.49,27.32-8.92,8.23-15.73,18.46-22.18,28.8-10.72,17.15-10.62,34.15.62,51,1.85,2.77,3.79,5.47,5.5,8.33,1.57,2.62,5.07,5.13,3.39,8.3-1.91,3.59-6.29,2.58-9.59,2.22a33.42,33.42,0,0,0-17.9,3.32c-13,5.92-19.62,20.21-16.76,34,2.28,10.92,15.88,23.7,29.43,22.16,5.35-.61,11-1.56,16.28.79,1.26.55,1.65-.49,2.08-1.46,6.14-13.8,12.74-27.38,20-40.66.69-1.27.77-2-.69-2.66-3-1.43-2.64-3.85-1.71-6.4,1.92-5.26,5.33-9.59,8.86-13.78,9.22-10.95,19-21.42,28.71-31.92a166.77,166.77,0,0,1,55.07-39.59c19.31-8.61,39.35-12.39,60.29-10,38.6,4.38,65.12,26.67,82.66,59.66,15.64,29.44,21.18,61.75,20.94,95,0,6-.87,12,.41,17.94.86,4,2.76,6.49,7.39,7.45s9.2,1.13,13.77,1.88c14.3,2.35,28.72,3.51,43.14,4.72,6.87,1.36,13.89,1.31,20.78,1.2,19.43-.32,38.85-1.42,58.1-4.41C1365.87,374.76,1379.88,372.35,1393.5,368.1Zm-504,183c-2.5,0-5,0-7.49.06-22.46.93-44.92,2.19-67.39,2.65-6.75.14-12,1.92-16.2,6.94-6.08,7.23-14,11.72-22.63,15a109.28,109.28,0,0,1-14.8,4.5c-13.33,3-26.66,5.1-40.48,2.26-4.65-.95-9.54-3.36-14-2.51-7.72,1.48-13.1-1.61-18.51-6.08-1.89-1.56-2.82-5.61-5.71-4.35s.1,4.31,0,6.63c-.44,7.32-3.63,9.45-9.9,5.75-6.8-4-11.24-10.26-15.15-16.93-.58-1-.48-2.68-2.37-2.7,0,4.72.68,9.41-.26,14-.62,3.07-1.1,6.6-4.83,7.49s-5.38-2.1-7.35-4.7c-2.93-3.87-6.48-8.26-11.86-6.83-14.15,3.75-28.11,8.12-39.5,18.12-13.24,11.63-22.29,26.42-31.07,41.3a516.14,516.14,0,0,0-25.56,50q-14.1,31.26-26.33,63.36c-10,26.22-17.55,53.29-25.15,80.31-5.54,19.7-8.09,40.06-13,59.92a64,64,0,0,0-1.45,24.78c2.23,15,11.29,26.21,21.29,36.46,27.41,28.08,61.05,45.18,99.14,53.31,33.06,7.05,66.76,7.7,100.42,8.09a236,236,0,0,0,69.5-9.61c38.34-11.24,73.56-29.61,108.61-48.28a50.75,50.75,0,0,0,15.8-12.86c6-7.4,5.25-14.37-2.14-20.38a29.7,29.7,0,0,0-5.35-3.64c-6-3-10.26-7.65-13.71-13.33C854.23,887,842.87,881,827.63,882.8c-10.58,1.21-20.26,5.12-29.86,9.33-17.6,7.72-34.73,16.2-53.67,21-26.1,6.62-51.75,14.93-78.74,17.52-14.35,1.38-28.58,1.52-42.63-2.28-19.55-5.29-37.73-13.78-55.16-23.91-5.16-3-10.25-6.27-13.92-11.2-1.91-2.56-3-5.25-1-8.26,3-4.56,4.08-9.77,5.39-14.93,2.18-8.52,4.06-17.1,6.5-25.58,5.32-18.51,9.35-37.39,15.12-55.78q14.33-45.65,29-91.19c2.09-6.48,4.7-12.79,6.93-19.23,1.06-3.08,3.34-3.6,5.94-3,2.77.67,2.74,3.1,2.36,5.3-.76,4.46-2.63,8.56-4.37,12.7-1,2.45-2,4.88-1.82,7.68,1,15,1.83,29.93,2.78,44.89,1.84,29.09,3.86,58.17,5.53,87.27,1.24,21.6,3.64,43.14,4,64.79a40.46,40.46,0,0,0,.76,10.92c1.81,9.41,5.21,13.09,14.57,14.4,12.06,1.68,23.91-.9,35.67-2.91,18.38-3.14,36-9.42,54.17-13.61a8.61,8.61,0,0,0,6-4.9c1.91-3.88,4.17-7.58,6-11.51C760.28,861.47,774.25,833,785,803c12.68-35.24,22.21-71.41,31.91-107.5,5.55-20.66,11.23-41.21,19.66-60.89,10-23.29,23-44.75,40.74-62.93,10.21-10.42,22-18.24,37.65-17.91,4.68.1,9,1.43,13.57,2,7,.81,14-.12,20.91-1.11,4.94-.71,10.25-.83,14.42-4.89C939,548.41,914.27,549.68,889.51,551.12ZM609.43,723c-.82,1.93-1.19,2.67-1.46,3.44-12.3,34.61-21.63,70.12-31.82,105.36-4.89,16.91-8.94,34.06-13.46,51.08-1.06,4-1.18,7.09,3.24,9.53,6,3.33,11.41,7.69,17.47,11.06,11.47,6.4,22.9,12.77,35.85,15.76,4.6,1.06,5.66.26,4.93-4.56A332.91,332.91,0,0,1,621,881q-1-20.91-2.85-41.76c-1.22-13.88-1.19-27.83-3-41.67-1-7.39-1.65-14.83-2.19-22.27C611.71,758.28,610.64,741.24,609.43,723Zm546.15-164.72A126.39,126.39,0,0,0,1123.31,545c-22.36-5.82-45.11-7.36-68.1-5.85-1.32.08-3.71-1.22-3.82,1.56a3.56,3.56,0,0,0,3.57,3.95c3,.28,6,.73,8.93.85,17.34.69,33.65,9.38,51.43,6.58a3.74,3.74,0,0,1,1,.06C1129.42,553.82,1142.62,554.89,1155.58,558.29Z"/><path class="cls-1" d="M640.52,247.72c-12.85,14-23.17,29.9-34,45.5-14.91,21.48-21.67,45.23-25.59,70.4-1.36,8.7-3.7,17.26-8.43,24.89-4.08,6.58-9.82,10-17.72,11.44-30.48,5.5-51.09,22.67-53.8,57.9a59,59,0,0,0,7.76,35,79.4,79.4,0,0,0-40.06,11.57c-14.24,8.72-25.13,20.21-28.88,37.14-2.09,9.45-.52,18.52,3.33,27.27.65,1.5,1.34,3,2.31,5.1-9.23.33-18,.49-26.56,2.08-23.18,4.29-43.12,14.35-58.27,32.87a28.71,28.71,0,0,0-5.86,10.9c-1.79,6.88.52,13,7.09,17.72,10.06,7.19,21.77,9.55,33.68,11.42,31.11,4.88,62.56,6.33,93.86,9.18,13.09,1.2,26.19,2.4,39.28,3.52,2.65.22,3.87.58,2.51,3.76-18.62,43.56-34.57,88.17-51.93,132.22a292.41,292.41,0,0,0-15.48,53.59A10,10,0,0,1,463,853c-32.13-21.94-64.86-42.95-92.61-70.8-21.85-21.91-42-44.91-57.36-71.87-5.11-9-8.28-18.76-12.38-28.14a184.85,184.85,0,0,1-10.88-32.41A206.84,206.84,0,0,1,285,591.37c2-36,13.74-69,30.48-100.73a436.16,436.16,0,0,1,23.27-38.32C350.33,435,364.19,419.57,379,405c4.74-4.67,9-9.82,13.76-14.48,8-7.84,16.94-14.82,24.69-22.83,9.29-9.59,20.89-16.22,30.15-25.72,3.21-3.29,7-6,11.88-6.91,3.46-.64,4.85-4.28,7.46-6.16,8.37-6,16.52-12.48,25.44-17.58,10.24-5.85,20.26-12.1,30.73-17.55,12.59-6.56,25-13.53,38-19.12,15.68-6.73,31.46-13.29,47.58-19,8.3-3,16.71-5.63,25-8.77C636.34,245.8,638.47,245.67,640.52,247.72Z"/><path class="cls-1" d="M909.65,207.66c-10.5,21.05-7.72,41.45,3.28,61.87-8.1,1.81-15.66,4.5-22,9.9-11.65,10-17.1,22.53-14.28,37.75,2.93,15.82,13.76,24.47,28.55,28.85,7.07,2.1,14.09,3.64,21.55,1.33,4.18-1.29,2.27,2.26,1.78,3.52a230.78,230.78,0,0,0-10.14,31.82c-6.61,29.44-7.81,58.71,3.6,87.39,6.66,16.76,15.27,32.1,31.21,42.11a34.4,34.4,0,0,1,10.83,10.94,20.68,20.68,0,0,1,2.77,6.36c1.79,8.24,0,10.26-8.24,10.54-38.62,1.32-77.24,2.55-115.85,4.18-14.3.6-28.57,2.09-42.91,1.77a54.71,54.71,0,0,1-14.8-2c-6.89-2.08-7.91-5.77-3.22-11.34a54.62,54.62,0,0,1,11.72-10q7.69-5.1,15.63-9.85c5.44-3.26,9.16-8.19,12.83-13.11,14.73-19.75,21.82-42.42,25-66.52,3.48-26.39,2.35-52.86,1.33-79.34-.22-5.66-.28-11.32-.35-17a7.7,7.7,0,0,1,.51-3.4c12-24.42,7.56-48.25-2.64-71.78-8.92-20.57-22.83-37.39-39.8-51.82,2-5.29,6.83-5.52,11.21-5.7,9-.37,18-.29,27-.26,14.48,0,28.95-.29,43.43-.7C895.2,203,903,202.72,909.65,207.66Z"/><path class="cls-1" d="M817.05,988.19a586.42,586.42,0,0,0,76.11-46.62c16.77-12.14,32.62-25.44,45.88-41.39,3.67-4.41,8-3.87,11.83-3.66,9.21.52,18.17-1.34,27.26-1.7,21.61-.86,43.15-2.48,64.7-4.55,11.9-1.14,23.78-2.9,35.77-3.27a37.44,37.44,0,0,0,5-.42c8.58-1.42,11.34-4.64,10.12-13.34-2-13.81-3.28-27.63-4.07-41.57-.91-16.08-2.95-32.1-4.48-48.15-.09-1,0-2,0-3,4.21-.4,5.78,2.41,7,5.71,2.95,7.81,4.15,16,5.61,24.19,1.72,9.55,4.52,18.92,5.09,28.68.54,9.22,3.36,18.41,2.28,27.55a155.74,155.74,0,0,0-1,16.11c-.12,8.61-1.29,11.2-9.7,13.69-11.38,3.37-22.77,6.52-34.81,7.77-9.59,1-19.3,2.07-28.9,3.39a216.3,216.3,0,0,1-31.84,1.75c-14.9-.18-29.93-1.31-44.59,2.48-11.21,2.9-21,8.22-30.6,15.1-9.09,6.52-17,14.6-26.81,20.35-4.85,2.83-8.82,8.21-13.95,11.47-15,9.53-29.57,20-46.91,24.82C829.82,985.33,824,989.39,817.05,988.19Z"/><path class="cls-1" d="M1159.52,959.36c-3.37-1.91-6.24-4.34-6.37-8.52-.19-5.82-3.77-10.43-5.2-15.82-2.45-9.17-3.87-18.6-7-27.61-3.43-9.74-6.93-19.52-9.35-29.54-2.74-11.4-6.68-22.48-8.58-34.09a26.27,26.27,0,0,0-1.81-5.62,151.67,151.67,0,0,1-8-26.23c-.59-2.8-2.7-4.77-3.49-7.55-4.94-17.5-12.18-34.37-15.17-52.41-3.29-19.82-3.76-39.4,7.29-57.48,2.26-3.69,4.7-4.25,9-1.61-3.29,3.84-2,8.23-1.15,12.35,5.21,24.17,10.65,48.29,15.91,72.45,4.69,21.51,9.51,43,13.78,64.59,3.28,16.6,5.74,33.36,8.68,50,1.47,8.33,3.51,16.56,4.73,24.92,1.17,8,2,16.08,3.84,24A97.36,97.36,0,0,1,1159.52,959.36Z"/><path class="cls-3" d="M771.86,107.82c.72-8.06,2-14.83,4.62-20.72,3.37-7.59,7.06-15.52,14.38-20.57,5.87-4,11.09-2.07,14.54,3.85,6.85,11.76,3.13,23-.63,34.29-4.92,14.84-13.85,27.4-23,39.82a14.77,14.77,0,0,0-2.46,4.82c-1.15,4.11-7,5.63-9.23,2-3.27-5.34-8.23-8.92-12.11-13.59a121.86,121.86,0,0,1-24.6-48.94A21.5,21.5,0,0,1,734.25,77c1.46-4.56,4.91-6,9.49-4.41,4.39,1.55,7.47,4.86,10.2,8.36A193.61,193.61,0,0,1,771.86,107.82Zm1.55,35.46c8.07-10.49,15-20.85,20.61-32.21,4.08-8.3,5.29-17.3,7.79-26,1-3.43-.16-6.81-4.25-8.49-3.94-1.62-5.4.42-7.4,3.35-4.92,7.22-6.35,15.49-8.13,23.7-1.39,6.45-1.44,13-2,19.6-.31,3.54-3.69,5.66-5.73,3.86-1.72-1.52-3.82-2.61-5-4.93a274.24,274.24,0,0,0-22.34-34.79c-.7-.94-1.15-2.52-3.28-2.08C746.93,107.86,758,126.28,773.41,143.28Z"/><path class="cls-2" d="M1159.52,959.36a97.36,97.36,0,0,0-2.93-18.13c-1.87-7.93-2.67-16-3.84-24-1.22-8.36-3.26-16.59-4.73-24.92-2.94-16.67-5.4-33.43-8.68-50-4.27-21.6-9.09-43.08-13.78-64.59-5.26-24.16-10.7-48.28-15.91-72.45-.88-4.12-2.14-8.51,1.15-12.35,3.64-.55,5.57,1.59,6.87,4.51a16.14,16.14,0,0,1,1.29,4.28c3.19,21.54,9.07,42.51,13.31,63.81,6.16,30.91,12.8,61.72,18.31,92.74,4.26,23.92,9.19,47.72,13.17,71.68,1.44,8.68,2.38,17.43,3.76,26.11a6.39,6.39,0,0,1-2.06,5.81C1162.22,964.84,1160.55,962.53,1159.52,959.36Z"/><path class="cls-1" d="M877.45,845.11l0,.32-.32,0a4,4,0,0,0-1.34,2.88A124,124,0,0,1,855,858l-.18-.22c1.82-8.95,5.36-17.38,7.93-26.11,8.14-27.7,16.49-55.36,21.66-83.83a65.77,65.77,0,0,0,1.5-14.34c-.11-2.74-.73-5-4.23-4.7.64-2.13,1.35-3.94,4.2-4s5.44.87,6.6,3.45c2.49,5.51,4.79,11.15,3.64,17.48-.45,2.47,1.45,4.74.77,7.27-1,1.21-.58,2.67-.75,4a3.11,3.11,0,0,0-1.17,2.58c-.41,6.82-.54,13.68-1.46,20.43-1.91,14-4.24,27.86-7.4,41.63A85.77,85.77,0,0,1,877.45,845.11Z"/><path class="cls-3" d="M851,149.93c3.3-7.69,6.73-14,12.35-18.59,6.59-5.4,16.43-4.39,19.38,3.77,3,8.42,1.8,16.81-2.74,24.37-9.8,16.32-24.49,26-42.86,30.41-4.21,1-6.54.07-8.28-4.42-6.14-15.75-7.45-32.24-8.41-48.83-.17-3,1-5.9,2.21-8.56,3.25-7,11.91-7.79,17.26-1.45,4.22,5,6.8,11,9,17.11C849.48,145.42,850,147.1,851,149.93Zm23.38-3.17c.51-4.26-.89-7-4.31-8-3-.89-4.13,1.93-5.43,3.9-4.22,6.42-7.11,13.46-9.74,20.64-.9,2.45-1.77,5.79-5.5,5.43-3.24-.3-3.45-3.32-4-5.63a123.84,123.84,0,0,0-8.49-24.36c-1.31-2.7-3.08-4.79-5.92-4.21-3.05.61-2.07,3.75-2.07,5.92,0,12.58,3.46,24.58,6.17,36.72.76,3.4,2.77,3.47,5.56,2.59,9.73-3.06,18.2-8.22,24.64-16C869.5,158.59,875.25,154,874.39,146.76Z"/><path class="cls-3" d="M679.51,145.58c-.78-5.84-1.32-10.42-2-15a28.22,28.22,0,0,1,2.06-16.53c1.56-3.36,3.55-6.55,7.41-6.56s8.14,1.23,10.21,5.11c3.6,6.74,6.43,13.77,5.06,21.73-.54,3.13,1.29,5.87,1.35,9.06.24,11.83-2.76,22.85-7.07,33.64-1.22,3-3.51,4.09-6.85,3.27a79.15,79.15,0,0,1-32-16.27c-4.8-4-9.68-8.1-13.06-13.64a26.41,26.41,0,0,1-3.26-7.21c-1.72-6.69.8-10.63,7.67-11.78,8-1.35,14,3,20,7.28C672.09,140.89,675.32,142.85,679.51,145.58Zm-24-3.5c-2,.16-4,.83-4.21,1.94a7.22,7.22,0,0,0,1.42,6c9.43,11,21.56,17.8,35,22.65.93.33,2,.7,2.56-.55.49-1,1.09-2-.11-3.09-10.29-9.53-20.16-19.57-32.74-26.22A14,14,0,0,0,655.55,142.08Zm37.78,14a41.8,41.8,0,0,0,1.21-9.78c.09-8.73.34-17.58-3.07-25.92a4.1,4.1,0,0,0-3.68-2.83c-1.94,0-2.51,1.79-2.74,3.57C683.44,133.35,687.59,144.16,693.33,156.11Zm-14-11c-.11.27-.32.55-.28.77a2.61,2.61,0,0,0,.5.77,5.45,5.45,0,0,0,.42-1.12C680,145.4,679.59,145.23,679.36,145.09Z"/><path class="cls-2" d="M1403.26,657.51c3.77-11.94,8.53-21.86,17.67-29.49,15.74-13.13,33-15.19,51.87-8.75a44.94,44.94,0,0,1,25.4,21.37,31.94,31.94,0,0,1,1.44,28.37,97.27,97.27,0,0,1-11.52,19.08c.49,1.58,1.86,1,2.91,1.12,8.12.55,16.24.94,24.26,2.67,8.19,1.77,13.55,6.39,16.09,14.42.71,2.26-.25,3.84-1.28,5.54-4.13,6.78-10.75,10.83-17.09,15-8.86,5.82-19.13,8.55-29.3,10.75a525.22,525.22,0,0,1-54.14,8.45c-17.22,1.88-34.48,2.67-51.79,3.09-13.78.33-27.55.31-41.3-.17-21.85-.76-44,1-65.34-5.36-7.56-2.24-13.16-7-15.29-15-2.47-9.32,1.67-17.21,10.62-20.89s18.24-6,28.11-5.66c9.64.27,12.5-3.41,9.84-12.72-4.43-15.48-4.74-30.81.55-46.1,8.66-25,37.85-37.56,61.6-25.93a64.44,64.44,0,0,1,21.07,17.17A121.39,121.39,0,0,1,1403.26,657.51Zm-104,52.27c-7.25-.79-15.87,1.89-24.59,3.87-3.76.85-6.56,3.17-9,5.94-3.37,3.88-2.93,7.28,1,10.63,5.48,4.62,12.09,6.13,19,6.83,14.74,1.5,29.54,2.17,44.35,2.64,26.39.85,52.77,1.77,79.18-.32,20.74-1.63,41.34-4.13,61.62-8.64,8.07-1.79,16.53-1.64,24.25-4.84,5.65-2.34,11.08-5.24,16.67-7.75,4.5-2,7.34-5.63,9.76-9.65,1.84-3.06,1.7-5.56-2.13-7.15-4.49-1.86-9-3.39-13.94-3.26-8.6.22-17.1-1.57-25.78-1-4.84.33-6.4-3.28-3.6-7.43,2.22-3.29,5-6.19,7.54-9.28,5.33-6.55,9.52-13.75,10.19-22.28,1.14-14.56-7.17-24.14-19-30.09-16-8-38.19-7.47-52,8.7-5.44,6.38-10.38,12.81-10.17,21.95.11,4.43-.89,8.93-1.74,13.34-.48,2.48-.72,5.7-4.17,6s-4.24-2.56-5.34-5c-6.85-15.3-15.73-29.23-27.83-41-19.38-18.85-55.13-13.8-62.21,18.61-2.42,11.08-1.79,22.27.3,33.25,1.31,6.86,2.36,14,7.53,19.65,2.6,2.85,0,4.54-2.68,5.21C1311.44,710.06,1306.25,709.94,1299.21,709.78Z"/><path class="cls-1" d="M630.05,898c9.4-1.45,18.89-1.64,28.37-1.87,23.3-.56,44.56-8.23,65-18.75,10.68-5.5,17.74-14.87,24.67-24.22,1.39-1.87,1.45-4.69,2.28-7,13.79-39,27.72-77.89,41.38-116.91,7-20,13.17-40.39,20.42-60.34,3.52-9.67,6.73-19.44,10.08-29.16,4.47-13,8.53-26.16,14.19-38.6,6.73-14.77,14.77-29,28.55-38.75a47.52,47.52,0,0,1,18.35-8.21,12.76,12.76,0,0,0,6.2-3c24.77-1.44,49.53-2.71,74.37-1.35-4.17,4.06-9.48,4.18-14.42,4.89-6.9,1-13.93,1.92-20.91,1.11-4.53-.53-8.89-1.86-13.57-2-15.65-.33-27.44,7.49-37.65,17.91-17.78,18.18-30.76,39.64-40.74,62.93-8.43,19.68-14.11,40.23-19.66,60.89C807.22,731.63,797.69,767.8,785,803c-10.76,29.93-24.73,58.43-37.87,87.3-1.79,3.93-4,7.63-6,11.51a8.61,8.61,0,0,1-6,4.9c-18.15,4.19-35.79,10.47-54.17,13.61-11.76,2-23.61,4.59-35.67,2.91-9.36-1.31-12.76-5-14.57-14.4A40.46,40.46,0,0,1,630.05,898Z"/><path class="cls-1" d="M609.43,723c1.21,18.23,2.28,35.27,3.51,52.3.54,7.44,1.23,14.88,2.19,22.27,1.79,13.84,1.76,27.79,3,41.67S620.29,867.07,621,881a332.91,332.91,0,0,0,3.22,33.67c.73,4.82-.33,5.62-4.93,4.56-13-3-24.38-9.36-35.85-15.76-6.06-3.37-11.46-7.73-17.47-11.06-4.42-2.44-4.3-5.53-3.24-9.53,4.52-17,8.57-34.17,13.46-51.08,10.19-35.24,19.52-70.75,31.82-105.36C608.24,725.68,608.61,724.94,609.43,723Z"/><path class="cls-1" d="M1063.85,347.81c1.24-11.05,2.36-22.11,3.76-33.14.53-4.22.32-8.46,1.69-12.7,1.24-3.85-1.57-6.42-4.85-5-13.73,5.83-28.52,6.42-42.9,9-12,2.16-24.07,4.41-36.13,6.46-9.88,1.68-19.71,4.25-29.89,2.56,1.18-2.74,2.23-5.56,3.57-8.22,2.71-5.36,6.57-9.18,13.15-9,2.32.06,4.67-.26,7-.06,23.75,2.12,47.07-1.54,70.4-5.14,8.7-1.34,17.46-2.37,26.16-3.73,3.26-.5,3.93.43,3.65,3.66-1.57,18.38-4,36.67-3.62,55.24a186.48,186.48,0,0,0,12.8,64.63c3.1,8,7,16,13.86,21.66,6,4.95,12.4,8.49,20.54,5.45-3.48,6.64-9.65,5.27-15.19,4.69-9.84-1-17.21-5.74-23.18-14.12-7.91-11.1-15.41-22.17-19.23-35.43-3.62-12.55-4.11-25.26-2.43-38.13,1.87.82,4,2.57,5.61.16s-.07-4.61-1.67-6.44A19.66,19.66,0,0,0,1063.85,347.81Z"/><path class="cls-4" d="M910.26,870.26c-.68,2.37-.86,4.89,1.5,6.25s5.07.8,7.37-1c4.14-3.19,8.33-6.3,12.9-9.73.26,2.81-1.32,3.78-2.68,4.9-2.17,1.78-4.4,3.52-6.45,5.44s-3.26,4.51-1.31,7.06,4.62,2.17,7.23.87a16.43,16.43,0,0,0,5.83-5.26c2.3-3.09,5-5.7,9.24-5.93.19.21.39.4.59.59-5.64,11.86-14.06,21.62-23.19,30.87-6.44,6.53-13.54,12.31-20.44,18.3-.73.63-.86,1.38-2.21.46a182.06,182.06,0,0,1-37.44-33.68c-3.63-4.33-7.1-8.79-10.88-13-3-3.29-3-5.46,1.5-7.07,9.86-3.51,18.88-8.86,28.42-13,2.4-1.05,4-4.42,7.93-2.68-2.39,3.63-4.58,7.28-7.12,10.68-1.84,2.48-1.84,4.62.4,6.55s4.46.9,6.16-.92c4.32-4.64,9.8-7.89,14.35-12.24.64-.61,1.42-.82,2.86-.34-2.25,3.4-4.05,6.93-7.09,9.65-1.69,1.51-2.85,3.32-2.4,5.69a4.75,4.75,0,0,0,2.95,3.76,3.67,3.67,0,0,0,4.47-1.15,29.85,29.85,0,0,1,6.64-6Z"/><path class="cls-1" d="M721.28,529.11c-1.78,4.13-4.7,5.17-8.55,3a18,18,0,0,1-6-5.92c-5.08-7.53-9.93-15.22-15.16-22.65-1.93-2.75-4.51-5-6.52-7.82q-9.87-13.75-19-28c-1.16-1.8-2.54-3.46-3.83-5.18,1.67-6.49-1.46-11.95-3.92-17.49-.45-1-2.11-1.05-3.16-.31-2,1.39-4.46,2.59-5.6,4.53-1,1.66,1.7,3.23,2.36,5,.28.77.69,1.5,1,2.25-28.17-8.81-38.17-38-32-58.54.56-1.9.86-3.88,1.47-5.76.84-2.56,1.82-5.11,5.19-5.23-6.9,16.53-.14,34.67,11.75,42.85,8,5.52,16.31,7.51,25.14,2.12,3-1.82,3,.63,3.42,2.11a300.07,300.07,0,0,0,12.86,33.48c6.76,14.86,16.83,27.46,26.6,40.31C712.47,514.66,718.14,521.06,721.28,529.11Z"/><path class="cls-1" d="M1138.2,477.57c-4.83,7.2-11.8,11.25-19.92,13.71-6.62,2-13.22,4.1-19.15,7.81-1.88-2-4.06-3-6.51-1.2-2.29,1.65-2.69,3.91-1.41,6.49a12.71,12.71,0,0,1,.65,2.35L1072.12,529l-24.07,1L1048,530c.67-2.53,3-3.5,4.84-4.69,13.55-8.58,22.37-21.57,31.84-33.94,3.52-4.62,6.86-9.38,10.28-14.08.9-1.22,1.63-2.44,3.51-1.19,10.52,7,23.89,1.34,32.23-7.4,6.83-7.17,11.52-15.41,11.45-25.72,4.42,1.27,7.65,9.21,4.73,13.19-2.43,3.31-3,7.18-4.84,10.59-1.92-.88-3.77-1.35-5.34.67-1.46,1.86-1,3.59,0,5.51A29.39,29.39,0,0,1,1138.2,477.57Zm7.36-23a5.27,5.27,0,0,0,0-4A5.79,5.79,0,0,0,1145.56,454.56Z"/><path class="cls-1" d="M1041.33,544.72c-8.79,6.21-17.17,13.15-27.92,15.88a257.26,257.26,0,0,1-29.32,5.29c-4,.55-7.84-1-11.82-.87-2.72.1-2.18-3-3.67-4.14,4.22-3,4.18-7.63,4.41-12,.34-6.33,1.68-12.43,2.94-18.84,13.5,6.53,27.2,9.74,41.78,9.17,5.52-.22,11-.58,16-3.08,3.86-1.93,5.41-.19,6.24,3.3C1040.36,541.21,1040.86,543,1041.33,544.72Z"/><path class="cls-1" d="M840.72,334.13c-1.55-.29-2.6-1-3.43,1.68-1.94,6.19-2.71,12.95-7.35,18.06-3.29-3.31-7.46-3-11.6-2.84-2.54-2-5.36-3.63-7-6.79-.29,3-1.83,5.67-.77,8.54a59.67,59.67,0,0,0-14.5,9.23c-4.94-2.95-8.68-7.09-11.93-12.5-1.19,5.57-4.31,9.51-7,13.71-4,6.26-12.46,9.13-19.53,7.23-3.5-.94-4.73-3.74-6.74-6.16-3.67,9.94-9.4,17.34-20,19.73-3.2-4.67-7.85-4.72-12.6-3.62-4.16,1-8.2,2.41-12.29,3.65l-.41-.57c6.52-7.24,9.93-16.13,13.59-25.09.4,3.89.69,7.8,1.2,11.68s2.53,7,6.62,7.81a10,10,0,0,0,10.85-4.46c2.46-3.61,3.8-7.7,5.14-11.82a244,244,0,0,1,8.9-23.84c.54,3.85.89,7.74,1.68,11.54a39.37,39.37,0,0,0,2.72,8.5c1.81,3.89,4.37,7.24,9.33,7a12,12,0,0,0,10.47-8.76c2.22-8.57,6-16.77,6.43-25.9,2.23,7.2,6,13.61,8.94,20.35,2.6,5.88,6.94,6.57,11.38,1.7,4.11-4.5,4.27-10.29,5.14-15.83.46-2.87.67-5.78,1.16-10.21,2.19,5.56,3.35,9.91,6.11,13.51,4.84,6.31,9.67,6.05,13.44-.91,3.25-6,3.87-12.63,4.39-20.39C837,323.69,842.4,327.06,840.72,334.13Z"/><path class="cls-1" d="M745.46,574.05c-12.37,2.4-24.33.86-36-3.74-1.41-.56-1.53-1.39-1.61-2.64-.16-2.62-.51-5.23-.85-8.47,3.82,3.11,6.63,6.72,10.62,9,4.67,2.71,9.08,5.12,14.31,1.7,5.49-3.59,7.24-9.1,6.63-15.17-1-9.87-4.61-19-9.52-27.55-.94-1.66-1.54-3.52-2.71-6.23,6.64,2.54,12,5.74,18.06,7.1A67.32,67.32,0,0,0,765.06,530c3.56-.31,6-.24,5.42,4.84-.51,4.72,2.6,9.22,2.39,14.14-6.12-.29-12.08,1.09-18.12,1.67a3.77,3.77,0,0,0-3.51,4.19C752,562.09,747,567.53,745.46,574.05Z"/><path class="cls-3" d="M834.79,456.05c-5.95,5.68-12.91,7.35-18.9,4.53s-11-11.41-10.5-18.57c.37-5.68,1.73-11.31,5-15.95,7.64-11,21.42-10,29.34,1.92C838.41,437.4,838,447,834.79,456.05Z"/><path class="cls-3" d="M944.59,433.59c-6.44,5-13.7,5.82-21.43,4.16-2.31-13.08-.48-26,1.65-38.87,7.31-4.42,13.3-.57,19.19,3.23,1.92,1.24,3.44,3.1,5.14,4.67C955,417,951.82,425.62,944.59,433.59Z"/><path class="cls-1" d="M1155.58,558.29c-13-3.4-26.16-4.47-39.26-6.14a3.74,3.74,0,0,0-1-.06c-17.78,2.8-34.09-5.89-51.43-6.58-3-.12-6-.57-8.93-.85a3.56,3.56,0,0,1-3.57-3.95c.11-2.78,2.5-1.48,3.82-1.56,23-1.51,45.74,0,68.1,5.85A126.39,126.39,0,0,1,1155.58,558.29Z"/><path class="cls-1" d="M938,839.85c1.81,3.63,3.06,7.58,8.33,7.9,2.57.16,4.3,2.68,4.69,5.14.5,3.15,2.27,3.47,4.85,3.51,5.51.09,5.85,1.73,6.71,7.29a23.79,23.79,0,0,1-2.52,15.2c-1.65,3.19-4,6-6.1,9-1.93.12-3.84,1-6.05.12,2.63-5.24,5.23-10.37,7.78-15.52a16,16,0,0,0,1.22-3.26c.75-3,2.52-6.3-.1-9s-5.92-.64-8.89.14c-.78.2-1.55.47-2.39.73-1.35-2.8,1.08-6.35-1.93-8.45-2.79-1.95-5.29.62-8,1,1.29-9.42-2.72-11.45-14.22-5.54-.11-2.85,2.25-6.37-1.24-8.14-5.13-2.61-9.09,1.36-13.61,3.28-.35-2.59-1.18-4.83-4-5.53-1.53-.38-1.57-1.5-1.24-2.75a22.34,22.34,0,0,0,13.48-.61c4.08-1.54,8.42-.59,12,3.35,2.76,3,7.56,1.05,11.28,2.24Z"/><path class="cls-5" d="M896.16,757l1,0c.84,20.27-1.6,40.35-3.32,60.47a73.5,73.5,0,0,0-.16,10.9c.53,8.31-6.19,17.05-14.28,18.45-1.39.24-2.33,0-1.94-1.76a85.77,85.77,0,0,0,8.68-23.46c3.16-13.77,5.49-27.67,7.4-41.63.92-6.75,1.05-13.61,1.46-20.43A3.11,3.11,0,0,1,896.16,757Z"/><path class="cls-1" d="M1272.93,380.15a544.63,544.63,0,0,0,89.35-6.75c7.26-1.12,14.09-3.71,21.33-4.72a42.13,42.13,0,0,1,9.89-.58c-13.62,4.25-27.63,6.66-41.69,8.84-19.25,3-38.67,4.09-58.1,4.41C1286.82,381.46,1279.8,381.51,1272.93,380.15Z"/><path class="cls-1" d="M690,396.11c-8.19-3-10.39-6.3-10.88-16.56l8.24-15.36a104.32,104.32,0,0,1-.15,15.64c-.37,7.68,1.61,9.5,9,8.66Z"/><path class="cls-1" d="M413.84,587,375,606.35A71,71,0,0,1,413.84,587Z"/><path class="cls-1" d="M706,384.05c-.27.7-1,1.19-1.39.61s.54-.85,1-1.17C705.76,383.67,705.9,383.86,706,384.05Z"/><path class="cls-1" d="M855,858l-.52.59c-.07-.12-.22-.32-.19-.36a4.65,4.65,0,0,1,.53-.45Z"/><path class="cls-4" d="M919.51,861.25c.47-.2,1-.91,1.38,0,.08.2-.43.64-.67,1Z"/><path class="cls-4" d="M943.89,872.88l.82-.5c-.08.36-.16.72-.23,1.09C944.28,873.28,944.08,873.09,943.89,872.88Z"/><path class="cls-1" d="M1048.05,530.05l-.5.42.41-.51Z"/><path class="cls-2" d="M1239,545.44c0,1.8.55,3.73-1.38,4.13a5.35,5.35,0,0,1-5.3-2.12c-5.55-7.27-11.42-14.34-16.37-22-6.53-10.12-12.6-20.57-18.32-31.17a299.22,299.22,0,0,1-20.67-48.49c-2.91-8.81-5.69-17.67-7.86-26.63a488.37,488.37,0,0,1-11-62.18c-2.23-20.34-4.39-40.68-6.69-61-.21-1.86-.26-3.33,1.67-4.09a4.91,4.91,0,0,1,5.53,1.13c1.89,1.85,2.46,4.29,2.57,6.84,1,23.12,4.72,46,7.9,68.8,5,36.11,12.45,71.62,28.44,104.87,10.19,21.21,20.6,42.21,34.69,61.17,1.77,2.39,3.74,4.63,5.55,7C1238.63,542.85,1239.61,544.09,1239,545.44Z"/><path class="cls-2" d="M1138.2,477.57a29.39,29.39,0,0,0-1.55-4.67c-1-1.92-1.45-3.65,0-5.51,1.57-2,3.42-1.55,5.34-.67,5.56,5.5,6.64,13.27,9.93,19.91a479.08,479.08,0,0,0,30.09,52.6c11,16.53,22.38,32.74,35.4,47.76,1.95,2.25,2.67,5,.46,7.14-2.65,2.63-4.45,0-6.09-1.85a363.62,363.62,0,0,1-35.41-45.73c-7.7-11.79-15.32-23.58-22-35.95C1148.53,499.82,1143,488.86,1138.2,477.57Z"/><path class="cls-2" d="M998.84,269.43c-2-.06-3.41-1.29-4-3.43s.66-3.58,2.45-4.28a30.83,30.83,0,0,1,6.22-1.65c14-2.35,28.13-4.5,42.16-7,14.63-2.57,29.31-4.86,43.67-8.81,2.91-.81,6.4-.08,7.26,3.42.91,3.7-2.27,5-5.12,5.37-24.28,3.34-47.77,10.65-72,14.33C1012.74,268.44,1005.91,268.76,998.84,269.43Z"/><path class="cls-2" d="M1080.4,206c15.37.35,29.84,3.63,43.33,11.1,2.19,1.2,2.86,3,3.8,4.86,1,2-.11,3.47-1.6,4.71s-2.6.46-4-.39c-17.52-10.62-36.19-13.7-56.07-8.12-5.57,1.57-9.67.82-9.77-2.3-.17-5.14,4-5.78,7.81-6.55C1069.4,208.16,1074.9,207.07,1080.4,206Z"/><path class="cls-2" d="M1091.86,506.73a12.71,12.71,0,0,0-.65-2.35c-1.28-2.58-.88-4.84,1.41-6.49,2.45-1.78,4.63-.76,6.51,1.2,2.38,5.43,4.42,11,7.57,16.08,1.55,2.5,1.77,5.49,2.07,8.39.2,1.93,1.25,4.29-1.3,5.12s-4.69-.43-6-3.1c-2.53-5.33-5.26-10.58-7.93-15.85C1093.06,508.7,1092.44,507.73,1091.86,506.73Z"/><path class="cls-2" d="M780.47,246.83c-.61,2.3-.93,4.91-3.66,5.43-2.57.49-3.71-1.4-4.52-3.57-3.07-8.22-8.54-14.81-14.43-21.12-2-2.1-4.14-4.24-1.4-7.21s5.36-2,7.73.44a75.9,75.9,0,0,1,15.53,23.27A18.3,18.3,0,0,1,780.47,246.83Z"/><path class="cls-2" d="M745.69,286.82c-.14,1.31-.28,2.63-.41,3.94-.29,2.91-2.36,4-4.82,4.08a4,4,0,0,1-4.15-4.66c1.3-9.67-.66-19.07-1.71-28.55-.31-2.84.93-5,3.92-5.39,1.83-.25,4.14.27,4,2.51s1,3.82,1.14,5.77q.9,11.14,1.76,22.29Z"/><path class="cls-2" d="M677.67,247.41a7.81,7.81,0,0,1-2.69,4.05c-6.42,4.55-11.55,10.35-16.18,16.64-.59.8-1.4,1.42-2,2.18-1.75,2.08-3.76,2-5.73.51s-2.56-3.49-1-5.62a86.3,86.3,0,0,1,20.46-19.9,7.25,7.25,0,0,1,3.77-.83A3.2,3.2,0,0,1,677.67,247.41Z"/><path class="cls-2" d="M596,400.87c-.41-5.2,1.36-10.17,1.71-15.27.22-3.17,1.71-6.76,5.39-6,2.85.62,4.16,3.62,3.09,7.29-1.83,6.28-1.28,12.82-1,19.29.13,2.73,1,6.16-3.17,6.53-3.91.34-5.55-2.48-6-5.91A45.54,45.54,0,0,1,596,400.87Z"/><path class="cls-2" d="M715.83,244.06a7.44,7.44,0,0,1-.79,2.2c-4.23,5.67-8.54,11.28-12.81,16.92-1.46,1.94-3.2,2.36-5.1.81-1.53-1.26-3.26-2.67-1.52-4.95,4.21-5.5,7.61-11.61,12.48-16.59,1.35-1.37,3-2.75,5.23-2C714.88,241,715.37,242.46,715.83,244.06Z"/><path class="cls-2" d="M822.2,263c0,2.79.11,4.35-1.59,4.64-2,.35-4.28.19-5.21-1.89-3-6.71-7.82-12.17-12.12-18a2.44,2.44,0,0,1,.5-3.54c1.74-1.57,4.6-2.52,5.88-1.05C815.12,249.4,820.67,255.77,822.2,263Z"/><path class="cls-2" d="M608.79,469.78c.77,3.64,1.87,8.25,2.69,12.92.92,5.18-.87,7.38-4.62,6.08a4,4,0,0,1-2.68-2.74c-1.52-5.72-3.79-11.26-4.16-17.26-.21-3.38.11-7.1,4.26-6.89C607.49,462.06,609.52,465,608.79,469.78Z"/><path class="cls-2" d="M663.63,330.62c-3.31,6.87-4.78,14.38-9.06,20.57-1.26,1.82-3.54,1.28-5.35-.14s-3.18-2.9-1.73-5c3.21-4.7,5-10.07,7.61-15.07,2.09-4.05,4.78-4.83,7.23-2.3A11.57,11.57,0,0,1,663.63,330.62Z"/><path class="cls-2" d="M685.55,509.55c-.06,1.54-.5,2.43-1.88,2.81-2.53.68-4.16-.45-5.24-2.61-2.79-5.58-7.64-9.9-9.75-15.89-.4-1.11-3.53-.42-1.79-2.86a5.2,5.2,0,0,1,4.73-2.08c.32,0,.78,0,1,.19C677.84,495.34,682.78,501.78,685.55,509.55Z"/><path class="cls-2" d="M636,315.2c-2.75.1-4-1.32-5.09-3.12s.38-2.56,1.41-3.66a85.28,85.28,0,0,0,6.69-7.91c1.48-2,3.65-2.66,5.66-3.66,1.55-.76,2.44.32,3.42,1.25s1.58,2.46.7,3.58c-3.55,4.56-7,9.2-11.32,13.11C637,315.18,636.19,315.14,636,315.2Z"/><path class="cls-2" d="M652.94,456.59c-.35-.75-.76-1.48-1-2.25-.66-1.81-3.33-3.38-2.36-5,1.14-1.94,3.62-3.14,5.6-4.53,1.05-.74,2.71-.7,3.16.31,2.46,5.54,5.59,11,3.92,17.49C656.56,465.2,655.92,464.79,652.94,456.59Z"/><path class="cls-2" d="M646.32,488.17c.45,1.57-.05,2.45-1.49,3.23a3.52,3.52,0,0,1-4.16-.4c-3.48-2.69-4.54-6.78-5.54-10.75-.37-1.49,1.31-2.55,2.65-3.23a2.81,2.81,0,0,1,3.58.69C644.15,480.69,645.43,484.34,646.32,488.17Z"/><path class="cls-3" d="M1027.75,415.08c6,1,10.73,3.51,13.32,9.54,4.1,9.52-1.41,22.63-12.07,27.9a17.76,17.76,0,0,1-23.63-7.21c-1.79-3.32-2.69-6.79-1.34-10.49,3.33-9.12,7.65-17.37,18.16-20Z"/><path class="cls-2" d="M994.75,341.9c5.66.18,6.32,1.13,3.91,6-6.56,13.32-13.44,26.49-19.68,40a394.91,394.91,0,0,0-16,39.87c3.31.46,6.11-1.21,9-2,2.58-.73,5-1.65,6.23,1.63s.16,6.44-3,7.42a111.43,111.43,0,0,1-17.51,3.76c-3.27.45-6.94-.08-7-4.91a251,251,0,0,1,10.55-27.4C970.26,385.4,979.73,364.76,991,345A8.22,8.22,0,0,1,994.75,341.9Z"/><path class="cls-1" d="M994.75,341.9A8.22,8.22,0,0,0,991,345c-11.26,19.77-20.73,40.41-29.79,61.26a251,251,0,0,0-10.55,27.4c-2,1.27-4,1-6.06-.06,7.23-8,10.38-16.63,4.55-26.81,5.17-9.85,11.47-19,16.05-29.28,2.62-5.85,6.43-11.46,9.36-17.19,3.22-6.29,7-12.18,10.57-18.18C986.94,339.14,993.21,339.05,994.75,341.9Z"/><path class="cls-2" d="M981.15,483c-10.81-.3-20.13-3.51-27.61-11.15-2.19-2.25-3.82-4.95-1.2-7.91,3-3.34,5.59-.92,7.58,1.17,12.39,13,27.81,10.72,42.47,5.41,4.76-1.72,9.56-3.59,13.56-7.1,1.43-1.25,4.45-1.83,5.75.41a4.48,4.48,0,0,1-1.62,6.48A79.52,79.52,0,0,1,981.15,483Z"/><path class="cls-2" d="M1027.75,415.08l-5.56-.22c-6.17-2.41-9.05-7.79-11.76-13.23-1.48-3,1.68-13.32,4.44-15.22,1.76-1.22,3.75-1.76,5.53-.28,1.6,1.33,2.44,3.11,1.37,5.3-.59,1.19-1.06,2.44-1.53,3.67-1.52,4-1.17,7.59,2.5,10.16s7.21,1.27,10.44-1.19c1.94-1.48,3.64-3.26,6-4.07,1.86-.62,3.6-.67,5,.88s-.14,2.75-.81,4C1040,411,1034.25,413.64,1027.75,415.08Z"/><path class="cls-2" d="M1063.85,347.81a19.66,19.66,0,0,1,3.08,2.37c1.6,1.83,3.3,4,1.67,6.44s-3.74.66-5.61-.16c-10.39-6.59-21.15-7.33-32.48-2.47a4.59,4.59,0,0,1-6.38-3c-.9-2.93.88-4.8,3.77-6,11.23-4.67,22.13-4.47,32.78,1.65C1061.66,347.16,1062.56,348,1063.85,347.81Z"/><path class="cls-2" d="M1120.1,449c2.18.12,3.74-.67,4.08,1.4.3,1.85.6,3.82-1.19,5a38.46,38.46,0,0,1-13.13,5.54c-2.18.45-3.69-.86-4.84-2.71-1.46-2.34,1-2.5,1.84-3.52C1110.64,450.4,1116.23,450.65,1120.1,449Z"/><path class="cls-2" d="M938.05,839.9c-6.34-8.16-4-18-4.8-27.1-.73-8.91-1.46-17.83-2.3-26.73-.24-2.55-1.05-5.53,2.92-6.17s5.38,1.49,5.62,5c.41,6.3,1,12.58,1.26,18.89.08,2.61.7,3.5,3.4,3.17,4.29-.53,8.62-.75,12.94-1,2-.14,2.74-.69,2.59-3.07-.48-8-.7-16-.71-24.07,0-4,3.22-5.87,6.31-4.09a3,3,0,0,1,1.75,2.74c.42,16.43.94,32.86,1.29,49.3,0,2.26,2.31,3.55,1.91,6s-.6,4.89-3.55,5.2c-2.6.26-3.64-1.55-4.22-4A62.26,62.26,0,0,1,961,818.8c0-4-1.66-5.43-5.49-4.56q-1.71.39-3.42.69c-3.23.57-7.91.06-9.29,2s.11,6.33.4,9.63c.16,1.82.4,3.64.61,5.45.5,4.44-1.35,7.13-5.83,7.88Z"/><path class="cls-2" d="M1030,793.67c.26-8.68-1.48-15.15-1.47-21.81,0-3.41.75-6,3.94-6.16,3-.18,4.13,1.64,4.19,5.46a254.14,254.14,0,0,0,3.66,39.87c.23,1.31.29,2.64.47,4,.45,3.4-.27,5.81-4.29,6.4-4.24.62-4.24-2.57-4.5-5C1031.13,808.17,1030.56,799.9,1030,793.67Z"/><path class="cls-2" d="M999.89,791.66c-.22,11.61,1.82,23,3.14,34.47.27,2.32-.46,3.54-2.2,4.4a4.2,4.2,0,0,1-5.35-1.39,5.88,5.88,0,0,1-1.31-3.66c.42-9.33-1.7-18.52-1.26-27.87.27-5.74-.5-11.54-1-17.3-.26-3.18.25-6.11,3.87-6.24,3.39-.12,4.56,2.06,4.16,5.69C999.54,783.67,1000.36,787.7,999.89,791.66Z"/><path class="cls-2" d="M1042,834.3c-1.11,2.31-.47,6.15-4.53,6.47-2.89.23-4.29-1.9-4.06-4.48.3-3.28,2.53-5.26,5.76-5.78C1041.93,830.06,1041.58,832.38,1042,834.3Z"/><path class="cls-2" d="M1000.74,761c-.24,2.26-1.21,4-3.87,4.15-2.9.16-4.35-1.66-4.55-4.18a3.63,3.63,0,0,1,3.79-4.22C999,756.57,1000.28,758.22,1000.74,761Z"/><path class="cls-3" d="M731.14,439c11.23-.74,22.56,8.36,22.34,15.66-.2,6.6-.19,14.25-6.61,19.29-4.8,3.77-9.92,6.44-16.15,6.38-11.54-.12-20.66-8.72-20.41-19.39C710.54,450.68,719.74,437.14,731.14,439Z"/><path class="cls-2" d="M789.09,453.22c-8.2,3.84-16.17.9-24.12-1-1.72-.42-2.38-2.39-1.67-4.15s1.55-3.26,4.06-2.55c3,.86,6.17,1.25,9.21,2,3.41.87,4.46.26,3.59-3.6-2.7-12.12-6.7-23.87-10-35.83-2.54-9.24-5.44-18.38-8-27.6-.92-3.25,1.09-4.67,4-4.65,1.43,0,2.86.79,4.28,1.22,1.87,6.7,3.7,13.41,5.6,20.1,3.45,12.09,7.12,24.11,10.36,36.26C788.11,439.88,791.19,446.23,789.09,453.22Z"/><path class="cls-1" d="M789.09,453.22c2.1-7-1-13.34-2.69-19.77-3.24-12.15-6.91-24.17-10.36-36.26-1.9-6.69-3.73-13.4-5.6-20.1,5.83-2.43,8.34-.25,9.95,5.62,2.88,10.46,3.39,21.8,7.81,31.41,4.53,9.86,6,20.14,8.84,30.22C798.82,450.67,795.65,454,789.09,453.22Z"/><path class="cls-2" d="M764.61,492.82a74.16,74.16,0,0,1-7.89-1.44c-2.54-.72-4.61-2.35-3.58-5.49.89-2.69,2.93-4.14,5.75-3.27,9.8,3,18.51.17,26.92-4.63a6.63,6.63,0,0,1,2.18-1.11c2.18-.3,4.67-.13,5.65,1.94.77,1.61-.53,3.49-2,4.71-5.59,4.66-12.16,7.2-19.21,8.55C770.19,492.51,767.85,492.53,764.61,492.82Z"/><path class="cls-2" d="M730.2,421.34c-1.14-3,.32-4.9,3.16-5.33,3.3-.5,4.06,1.51,4.32,4.74.52,6.29-1.47,11.53-6.42,14.24-6.49,3.55-11.14,3.29-16.38-1.1-2.79-2.33-5.46-4.81-6.62-8.46-.69-2.16-.36-3.9,1.69-5.15,2.24-1.38,4.13-.71,5.69,1.07,1.3,1.49,2.29,3.25,3.62,4.69,1.89,2,3.79,4.62,7.08,3.34C729.86,428,730.11,424.68,730.2,421.34Z"/><path class="cls-2" d="M796.12,362a59.81,59.81,0,0,1,14.49-9.23c2.38-1.43,5.15-1.18,7.73-1.75,4.14-.16,8.31-.47,11.6,2.84.25,7.09-.73,8-7.56,6.41-3.59-.82-6.76,0-10,1.57a60.78,60.78,0,0,0-10.26,6.9c-2.6,2-4.9,3-7.34.41C792.2,366.39,793.87,364.06,796.12,362Z"/><path class="cls-2" d="M809.92,414.77c-5.6-.15-12.5-7.47-12.29-13a3.87,3.87,0,0,1,2.68-3.81,5.25,5.25,0,0,1,6.17,2c1.1,1.61,1.81,3.49,2.91,5.12.71,1,1.6,2.34,3.17,1.91a3,3,0,0,0,2.52-3.15c.1-2,.93-3.82,3.22-4.47,1.68-.48,3.34-.76,4.59.73s.31,3-.84,3.75-.71,1.69-.95,2.56C819.54,412,815.66,414.94,809.92,414.77Z"/><path class="cls-2" d="M643.23,396.9c3.22,1.78,6.39,3.51,9.52,5.28,2.23,1.26,4.57,2,6,4.77,1.28,2.5.14,3.48-1.14,5-1.5,1.83-3.16,1.69-4.84.7-4-2.36-7.87-4.85-11.79-7.31-1.7-1.07-2.81-2.59-1.93-4.57C639.83,399,641,397.37,643.23,396.9Z"/></svg>