<svg id="Layer_1" data-name="Layer 1" xmlns="http://www.w3.org/2000/svg" viewBox="0 0 1920 1080"><defs><style>.cls-1{fill:#ffbea2;}.cls-2{fill:#1f1f1d;}</style></defs><title>Artboard 1</title><path class="cls-1" d="M736.33,118.6c31.16-20.74,66.17-30.73,102.61-36.68,26.49-4.32,53.11-7.6,80-6.55,37.73,1.47,73.7,10.73,108.28,25.66,42.66,18.42,80.92,43.78,116.07,73.94,69.52,59.63,123.81,131.4,167.37,211.58,30.75,56.59,54.71,115.89,70.12,178.52,8.16,33.16,13.8,66.7,15.23,100.93,2,47.09-4.27,92.65-24.06,135.83-2.57,5.6-5.64,11-8.48,16.45-1.1-2.41-2.31-4.77-3.29-7.22a561.56,561.56,0,0,0-44.48-87.66,39.63,39.63,0,0,0-8.64-10.27c-4.24-3.44-8.06-2-9.36,3.3-1.14,4.65-.18,9.23.67,13.77s2,8.77,3,13.15a5.82,5.82,0,0,1-2.44-2c-13.48-17.08-26.9-34.23-40.51-51.21-2-2.5-1.94-3.91.11-6.28,13.69-15.83,26.87-32.09,39.06-49.11,22.39-31.25,29.16-65.81,20.66-103.13-7.6-33.32-27.39-58.56-54.31-78.67-23.8-17.78-50.79-29-78.8-38.07-43.18-14-87.63-21.69-132.72-25.76-30.88-2.79-61.84-4.43-92.87-2.85a3.08,3.08,0,0,1-3.49-2.2q-5.4-13-11.1-25.91c-.91-2.07-.49-3,1.59-3.63a32.37,32.37,0,0,0,11-6c16.53-14,21.15-32.07,17.76-52.73-2.78-17-9.67-32.45-18-47.33-1.59-2.85-2.26-5.1-.54-8.41,3.06-5.9,0-12-6.06-11.45-5.23.48-6.94-2.29-9.46-5.49-2.63-3.35-4.06-5.41.76-8.46a11.24,11.24,0,0,0,5-12.89c-1.4-5.09-5.49-7.12-10.36-8-1-.18-2.25.13-3-.92,3-7,1.63-11.59-4.65-16a34,34,0,0,0-7.47-3.83c-13.86-5.27-28.27-7-43-6.58a5.27,5.27,0,0,1-4.9-2.25,75.4,75.4,0,0,0-13-12.58c-22.73-17.8-48.69-24.1-77.09-21.3a92.52,92.52,0,0,0-28.83,7.37c-.8.36-2.55.75-2.16,1.38,2.37,3.85-1.41,3.9-3,4.81a74,74,0,0,0-31.09,33.33c-7.67,16.12-10,33.16-8.41,50.84.13,1.43.81,3.75-1.12,3.95-2.29.23-2-2.25-2.14-3.84a100.07,100.07,0,0,1,0-20.18c3.24-29.56,15.91-53.22,42.88-67.75,2-1.09,1.94-1.89,1.1-3.75C747.53,129.2,741.94,123.91,736.33,118.6ZM1106.54,366c-1.5-.21-3.35-.13-3.33,1.56,0,2.07,2.3,1.62,3.69,1.82,45,6.51,87.49,20.45,127.08,42.95A266.39,266.39,0,0,1,1277.15,443c1,.92,2.27,3.07,3.72,1.39s-.43-3-1.73-4.06c-1.72-1.44-3.39-2.94-5.12-4.37-35.82-29.47-77-48.25-121.38-60.49A337.05,337.05,0,0,0,1106.54,366Z"/><path class="cls-2" d="M736.33,118.6c5.61,5.31,11.2,10.6,14.47,17.85.84,1.86.93,2.66-1.1,3.75-27,14.53-39.64,38.19-42.88,67.75a100.07,100.07,0,0,0,0,20.18c.15,1.59-.15,4.07,2.14,3.84,1.93-.2,1.25-2.52,1.12-3.95-1.56-17.68.74-34.72,8.41-50.84a74,74,0,0,1,31.09-33.33c1.61-.91,5.39-1,3-4.81-.39-.63,1.36-1,2.16-1.38a92.52,92.52,0,0,1,28.83-7.37c28.4-2.8,54.36,3.5,77.09,21.3a75.4,75.4,0,0,1,13,12.58,5.27,5.27,0,0,0,4.9,2.25c14.72-.45,29.13,1.31,43,6.58a34,34,0,0,1,7.47,3.83c6.28,4.39,7.62,9,4.65,16,.75,1.05,2,.74,3,.92,4.87.88,9,2.91,10.36,8a11.24,11.24,0,0,1-5,12.89c-4.82,3-3.39,5.11-.76,8.46,2.52,3.2,4.23,6,9.46,5.49,6-.56,9.12,5.55,6.06,11.45-1.72,3.31-1,5.56.54,8.41,8.34,14.88,15.23,30.36,18,47.33,3.39,20.66-1.23,38.74-17.76,52.73a32.37,32.37,0,0,1-11,6c-2.08.67-2.5,1.56-1.59,3.63q5.7,12.89,11.1,25.91a3.08,3.08,0,0,0,3.49,2.2c31-1.58,62,.06,92.87,2.85,45.09,4.07,89.54,11.75,132.72,25.76,28,9.09,55,20.29,78.8,38.07,26.92,20.11,46.71,45.35,54.31,78.67,8.5,37.32,1.73,71.88-20.66,103.13-12.19,17-25.37,33.28-39.06,49.11-2,2.37-2.11,3.78-.11,6.28,13.61,17,27,34.13,40.51,51.21a5.82,5.82,0,0,0,2.44,2c-1-4.38-2.17-8.74-3-13.15s-1.81-9.12-.67-13.77c1.3-5.33,5.12-6.74,9.36-3.3a39.63,39.63,0,0,1,8.64,10.27,561.56,561.56,0,0,1,44.48,87.66c1,2.45,2.19,4.81,3.29,7.22,5.75,14.85,13.68,28.51,22.83,41.49,13.12,18.61,27.66,36.09,42.48,53.35,1.38,1.6,2.75,3.2,4.14,4.78,1,1.17,2.49,2.62,1.12,4-1.69,1.63-2.65-.55-3.53-1.58C1422,910.21,1413.56,900,1405,890c-24-28-41.62-59.55-55-93.88-9.46-24.29-22.52-46.95-36-69.26a51.08,51.08,0,0,0-7.37-9.7c-1.15-1.16-2.43-2.91-4.18-2.22s-1.75,2.86-1.79,4.48c-.14,5.79,1.28,11.4,2.55,17,2.38,10.53,6.64,20,13.93,28.27,8.78,10,16.58,20.89,24.93,31.28,1.94,2.42,1.84,3.86-.63,5.81q-36.14,28.32-72.11,56.85c-1.79,1.42-3.37,2.22-4.83-.15-1-1.63-2.37-1.65-4-1.5a77,77,0,0,1-17.23-.12c-2.85-.39-3.38,1-3.23,3.3a12.61,12.61,0,0,0,8.1,11.38,51.83,51.83,0,0,0,32.94,2.9c1.84-.43,4.27-.93,4.48-3.24s-2.14-3.11-3.84-3.92c-6.56-3.1-13.62-2.89-20.65-2.83-1.37,0-3.61,1-3.82-1.24-.24-2.61,2.24-2,3.75-2.05,6.19-.25,12.36-.14,18.37,1.64a24.05,24.05,0,0,1,4.3,1.66c6.6,3.42,7.14,7.67,1.56,12.45a13.89,13.89,0,0,0,1.92.91c11.3,3.23,20.13,9.83,27.75,18.75,25.82,30.2,51.94,60.14,78,90.18.37.43.73.86,1.1,1.28,1,1.16,2.51,2.55,1,4-1.82,1.74-2.66-.63-3.49-1.59-9.1-10.5-18.06-21.13-27.17-31.62q-27.77-31.95-55.64-63.8c-1.74-2-3.43-4.09-5.81-5.43-9.31-6.64-19.33-11.05-31.11-10.52a57.53,57.53,0,0,1-19.12-2.19,8.66,8.66,0,0,0-4.54-.56c-12.9,3.17-25.8,6.38-38.9,9.63,6.06,16.74,9,34,10.41,51.49,1.35,19.79.76,39.59.53,59.39,0,1.37.8,3.63-1.53,3.67-2.79,0-1.63-2.47-1.64-3.86-.18-20.08.78-40.18-.9-60.23-2-23.83-7-46.83-18.58-68-9.26-17-23.07-29.91-38.19-41.54a300.41,300.41,0,0,0-48.56-30.09c-1-.52-2.09-1.9-3.35-1s-1.43,2.69-1.27,4.26a17.15,17.15,0,0,0,3.67,8.37c6.8,9.3,15.7,16.39,24.78,23.27,3.35,2.54,6.83,4.92,10.27,7.36,1.21.86,3.25,1.63,2.29,3.36-1.08,1.94-2.66.22-4-.36-.33-.07-.88-.3-1-.19-.27.38-.06.73.39.89q11.28,22.95,22.56,45.91c4.56,9.29,8.86,18.72,13.71,27.86,8.61,16.22-4.23,32.56-21.5,32.79-5.27.07-8-.55-15.44-3.79-.85,9.42-1.7,18.66-2.53,27.91-.57,6.28-1.15,12.56-1.65,18.84-.12,1.47-.15,3.18-2,3.1-2.19-.1-1.37-2.09-1.27-3.3.79-9.62,2-19.21,2.3-28.89.61-6.13,1.24-12.27,1.81-18.41.07-.8.12-1.92-.34-2.4-5.41-5.62-7.35-13.17-11-19.75-1-1.81-2-2.09-4-1.89-8.69.91-14.64-3.32-15.77-12-.6-4.64-2.44-4.75-6.24-4.21q-37.93,5.41-76.1,8.86c-20.41,1.83-40.84,3.39-61.27,5-2.17.17-2.5,1-2.31,2.85,2,20,4.61,39.87,8.41,59.59,1.09,6.49,2.24,13,3.24,19.48.2,1.31,1.37,3.54-1,3.77-1.7.16-2-1.9-2.31-3.45-4.68-26.25-8.95-52.54-11.65-79.08-1.8-17.76,2.65-33.61,12.53-48.16,3.79-5.57,7.56-11.16,11.69-16.47,5.54-7.11,6.75-14.77,4.47-23.37a159.54,159.54,0,0,0-5.31-15.91c-.93-2.44-2.18-2.49-4.09-1.21a8.3,8.3,0,0,0-3.55,5.93c-.75,4.37-.06,8.7.35,13a9.75,9.75,0,0,1-1.34,6.41,116.21,116.21,0,0,1-11.94,15.23c-2.21,2.5-3.54,1.38-4.38-1.2-2.46-7.54-3.83-15.2-3.12-23.19,1.72-19.29,3.32-38.59,3.45-58A108.8,108.8,0,0,0,955.5,754a50,50,0,0,0-2-6.85,3.1,3.1,0,0,0-2.8-2.24c-1.44,0-2.18,1.12-2.74,2.28-2.19,4.5-2.83,9.39-3.37,14.26-1.82,16.32-2.74,32.72-5.09,49-1,6.9-2.76,13.74-2.14,20.83.14,1.5-.33,3.1-2.17,2.87s-1.18-2-1.2-3.12c-.09-6.6-.32-13.19-2.07-19.61-.22-.81-.47-1.62-.76-2.4-2.84-7.7-7.52-8.62-13-2.45s-8.6,13.73-11.59,21.31c-.73,1.85.16,2.92,1.54,3.85,1.78,1.19,2.48-.4,3.33-1.4a6.72,6.72,0,0,0,1-1.86c.45-1.15,1.3-2.15,2.44-1.65,1.46.64,1.1,2,.51,3.28-1.22,2.59-2.56,5.28-5.78,5.48s-5.35-2.11-6.81-4.82c-2.19-4.08-1.91-8.72-2.81-13.09-.45-2.18-.39-4.73-3.07-5.46s-4.6.76-6.27,2.6c-4,4.44-6.35,9.86-8.43,15.38a2.71,2.71,0,0,0,1,3.39c1.4.93,2.25-.38,3.21-1.11,1.27-1,2.26-3.92,4.07-1.92s-.82,3.53-2.17,4.77c-3.75,3.45-7.33,2.68-9.28-2-1.35-3.22-2.2-6.67-3.68-9.83-1.85-3.91-4.16-4.24-7.1-1-5.23,5.66-8.2,12.64-11,19.69l-.21,1,1.07-.05c1.09-.25,2.18-.53,3.28-.75,2.12-.41,3.6-1.16,3.1-3.83-.24-1.25-.52-3.21,1.53-3.22s1.71,1.86,1.78,3.21a289.26,289.26,0,0,0,4.26,37.59c1.89,10.29,4.85,20.17,11.07,28.78,2.29,3.17,4.51,6.47,8.49,7.85,2.33.81,1.58,2.73,1.35,4.28-2.3,15.52-4.67,31-7,46.56q-2.33,15.39-4.64,30.77a17.11,17.11,0,0,1-.5,2.89c-.31.94-1,1.94-2.07,1.69s-1.14-1.42-1-2.42l2.55-18.3c2.72-17.9,5.36-35.81,8.25-53.68.5-3.1-1-2.76-2.93-2.72-10.24.25-20.48.64-30.73.69-29.35.13-58.68-.49-88-2.26s-58.52-4.36-87.32-10.26c-17.73-3.64-35.46-7.54-50.7-18.21-.76-.52-1.55-.81-2.31-.18-2.24,1.87-4.84,1.44-7.5.86,0,4.5.21,8.58-.05,12.62-.39,5.8-2.17,11-7.44,14.37-2.53.84-5.15,2-7.77,1.3-3.29-.83-4.53.53-6,3.28-3.23,6.16-5.14,13.08-10.23,18.23-1.23,1.25-.44,3-.31,4.45q1.88,21.6,3.86,43.19a21.28,21.28,0,0,1,.14,2.52c-.06,1.11.75,2.86-1.26,2.88-1.55,0-1.88-1.49-2-2.78-.36-3.92-.66-7.83-1-11.75q-1.37-16.35-2.75-32.71a18.89,18.89,0,0,0-.55-2.54c-10.69,5.2-21,5.5-30.73-1.58-8.49-6.17-11.23-16.35-6.66-25.78,11.5-23.68,23.24-47.24,34.87-70.85.74-1.5,1.44-3,2.15-4.5-.34-.26-.57-.56-.75-.54-1.36.14-3,2.13-4-.1-.77-1.85,1.34-2.49,2.54-3.31a220.69,220.69,0,0,0,25.5-20,57.11,57.11,0,0,0,10.82-12.83c1.28-2.19,2.51-4.48,2.3-7.08s-1-4.36-4.22-2.68c-23.6,12.27-46,26.27-65.57,44.5-18,16.73-28.62,37.46-34.64,60.87-6.24,24.28-7,49.08-6.71,74,.09,7.15.27,14.31.35,21.47,0,1.33.42,3.27-1.52,3.37-2.36.13-1.85-2-1.87-3.43-.28-22.17-1-44.35,1.28-66.47,2.76-27,9.89-52.53,25.29-75.29a180,180,0,0,1,23.68-24.44,264.64,264.64,0,0,1,46.38-31.2c4.32-2.3,5.32-6.28,7.07-9.95,1.29-2.71-1.65-4.16-2.76-6.09-7.58-13.1-8.6-26.51-2-40.22,3.18-6.55,6.69-13,10.17-19.36,1.22-2.24,1.21-3.22-1.65-4a201.78,201.78,0,0,1-25.84-8.83c-34.94-14.83-53-41.55-55.08-79.1-1.27-22.48,5-43.34,15.37-63,16.64-31.67,41.14-56.37,70.16-76.62,47.22-33,99.52-55.61,153.79-73.94,29.8-10.07,60.21-17.86,91.43-22.18,2.83-.39,3.21-1.28,2.41-4-4.4-14.93-8.59-29.91-12.77-44.9a6.77,6.77,0,0,0-3.47-4.36c-9.55-5.58-17.63-12.93-25-21.08-.69-.77-2.14-1.47-1.36-2.74,1.43-2.29-.33-2.88-1.68-3.82a58.83,58.83,0,0,1-5.07-3.76c-11.18-9.84-18-22.51-22.8-36.3-8-22.94-6.94-45.1,7.36-65.45,13.19-18.78,31.82-30.06,53.43-36.79a79.58,79.58,0,0,1,19.86-3.43c1.15-.06,2.46-.08,2.25-1.71s-1.5-.84-2.35-.81c-3.49.15-7-.26-10.49.37a105,105,0,0,0-42,17.61C795,203.51,780.79,228,786.24,260.72c3.84,23.12,13.37,43.7,33.35,57.88.23.16.22.64.37,1.13a143.31,143.31,0,0,1-38.76-5.93c-39.91-11.75-65.81-36.67-73.49-78.55-.4-2.18-1.28-2.37-3.07-2.12-15.8,2.2-31.06.54-45.56-6.44-16.8-9.51-27.45-23.59-31.32-42.58-7.34-36.11,17.36-73.26,53.6-79.75,18.76-3.36,36.13,1.37,51.84,12.13ZM966.47,888.89l-.56.78-1.21,3.51c-2.59,5.57-3.25,11.48-3.49,17.55-.15,3.53.49,4.74,4.45,4.47,44.37-3.08,88.63-7.29,132.68-13.43,8.08-1.12,8.07-1.21,8.36-8.36.13-.23.41-.51.36-.67-.2-.6-.64-.34-1-.18-3.53,1.17-6.14-.13-8.58-2.74-4.24-4.52-6.13-9.76-4.9-15.8.59-2.89,0-4.14-2.84-5.16-5.57-2-9.74-5.58-10.12-12.09a19.84,19.84,0,0,1,1.82-9.84c2.15-4.35.84-6-3.32-7.89-10.37-4.6-20.58-9.64-29.43-16.91-2.79-2.29-6.22-5.08-4.37-9.14,1.74-3.8,5.91-2.92,9.39-2.7,6.72.41,13.09,2.55,20,4.27-1.73-4.69-3.46-7.6-9-8.46-17-2.62-30.13-11.5-38.19-27.16-4.55-8.83-9.25-17.59-13.88-26.38l-1.58-2.89q-9.64-18.64-19.31-37.29a41.91,41.91,0,0,1,5-46.49c20.7-25.23,69.79-27.87,89.51,10.94,10.91,21.48,22.41,42.66,33.66,64,8.31,15.72,7.49,30.91-2.59,45.59-.53.76-1.83,1.49-1.28,2.44,2,3.52,2.34,8,6.64,10.27a255.47,255.47,0,0,1,25.88,15.71c21.31,14.69,41.09,30.9,53.39,54.44,0,.09.47,0,.87,0a206.59,206.59,0,0,0,.26-29c-.55-9.53,1.27-19.37-3-28.56a5,5,0,0,1,0-3.72c2.28-4.94.45-9.91.45-14.87,0-3.06-1.31-4.18-4.46-4.44a154,154,0,0,1-29-5.1c-4.46-1.25-8.86-2.72-12.56-5.67-5-4-4.27-9.46,1.53-11.83a28.08,28.08,0,0,1,9.45-1.87,142.63,142.63,0,0,1,24.4.93c0-1.43-.81-2-1.39-2.78-6.34-8.06-12.63-16.15-19-24.13-1.78-2.22-1.86-3.66.6-5.48,5.51-4.1,10.76-8.57,16.26-12.69,2.3-1.73,3-3.38,2.35-6.34a816.73,816.73,0,0,0-35.58-121.26c-11.87-31.46-25.5-62.15-40.23-92.36-.69-1.42-2.5-3.37-.52-4.38,2.28-1.17,2.75,1.58,3.48,3.07,3.1,6.28,6.13,12.59,9.14,18.91,3.49,7.32,5.79,15.54,10.63,21.82,11.91,15.46,26.42,28.24,44.2,36.95,2.9,1.42,3.88.93,5.15-1.87a220.64,220.64,0,0,0,14.67-42.42c8.17-36.3,6.35-71.84-8.08-106.46-1.84-4.42-4.17-7.48-9.32-8.38-4.65-.81-9.11-2.71-13.68-4-37.6-10.84-76-17.08-114.93-20.82-8.19-.79-16.4-1.29-25.08-1.95,4.77,14.08,7.66,27.91,7.84,42.17.41,33.83-13.05,59.78-44.47,74.24-30,13.82-61.55,16.66-93.71,8.83-30.88-7.53-55.2-25.45-75.45-49.39a210.05,210.05,0,0,1-30-47.5c-.62-1.34-.57-3.39-3.31-2.52-14,4.45-28.09,8.73-41.71,14.34L744,432c-13.37,4.57-26.26,10.31-39.15,16.06-11.74,5.23-23.3,10.83-35.07,17,12.67,9.21,22.72,20.43,31.66,32.71,6.11,8.39,11.07,17.48,16.32,26.4a5.45,5.45,0,0,0,1.61,3.14c8.94,19.51,16.47,39.51,21.25,60.47.6,2.64,2.33,1.89,3.9,1.5a29.22,29.22,0,0,1,25.83,5.25c3,2.28,6.06,4.57,8.9,7.06a47.48,47.48,0,0,0,24.61,11.83,25.7,25.7,0,0,1,19.71,14.2c1.34,2.59.9,4.09-2.06,5-5.11,1.48-10.1,3.34-15.23,4.71-2.29.61-2.78,1.63-2.62,3.81.47,6.15.89,12.32,1,18.48,0,2.69.92,4,3.43,4.88,11.88,4.18,23.7,8.53,35.54,12.83,19.18,7,39,12.59,54.94,26.31a6.54,6.54,0,0,0,2.67,2.57c1.06,1.3,2.13,2.6,3.17,3.9,4.75,5.92,8.11,12.41,8.28,20.21.24,11.68-5.83,20.08-14.69,26.47a137.59,137.59,0,0,1-42.57,20.39,25.33,25.33,0,0,1-7.06.83c-2.47,0-4.82-.88-5.63-3.56s.23-4.64,2.31-6.27c2.64-2.07,5.23-4.18,7.85-6.28l1.15-.82a1.42,1.42,0,0,0-1.8,0c-13.74,5.21-27.22,11.25-41.71,14.15-4,.81-4.94,2.5-5,6.3-.45,19.08-1.91,38.11-3.18,57.14-1.69,25.34-3.68,50.65-6.2,75.93-.26,2.7-.29,4,3.36,4.15,16.56.68,33.12.57,49.69.54,12.35,0,24.71-.25,37.06-.42,1.18,0,2.65.47,3.28-1.12.76-1.91-.89-2.33-2-3.1-3.4-2.38-5.74-5.71-8-9.09-9.43-13.89-11.27-30-13.13-46-.5-4.27-1.76-4.43-5.09-3.29-15.87,5.43-32.12,8.83-49,8.66-1.51,0-3.71,1.08-4.27-1.28-.47-2,1.63-2.33,2.91-3,12.31-6.74,24.76-13.12,38.75-15.68,2.49-.46,3.7-1.93,4.55-4.21a88,88,0,0,1,8.29-16.48c4.81-7.61,12.24-11.84,17.52.75.85-.38,1.1-1.19,1.45-2,2-4.21,4.16-8.29,7.64-11.48a9.32,9.32,0,0,1,9.35-2.41c3.42,1,4.23,4.21,4.8,7.32.4,2.17.72,4.35,1.22,7.41,1-2.38,1.6-3.8,2.27-5.17,3.06-6.17,6-12.41,11.54-16.87s11-3.28,14.6,2.53c.74,1.21.79,3,2.69,3.72a40.51,40.51,0,0,0,2.22-10.67c1.15-12.15,2.17-24.31,3.49-36.45.6-5.55,1.22-11.22,4.21-16.15,2.89-4.75,8-4.62,10.67.2a28.54,28.54,0,0,1,2.79,9.2c1.51,8.33.91,16.78,1.48,25.16a6.25,6.25,0,0,0,0,4.16q-.9,14.25-1.79,28.49c-.19,3.14,1.73,1.63,3,1.28,14-3.92,28-8,42-11.78,10.94-2.92,8.79-4.34,12.37,7.09.9,2.88.24,4.34-2.84,5.12-7.46,1.89-14.79,4.26-22.26,6.06-3.49.84-4.17,1.86-2.92,5.47,3.58,10.35,6,20.87-.93,31l-2.57,3.71c-2.38,3.28-4.85,6.5-7.14,9.84-4.17,6.07-8.56,12-10.91,19.16Zm346.59-69.35c3.11-2.38,6.1-5,9.39-7.09,3.07-2,3.21-3.46.81-6.35-10.06-12.09-19.77-24.46-29.75-36.61-2.1-2.55-2.13-4.22.64-6.14s5.45-4.44,8.36-6.38c2.36-1.58,2.35-2.74.59-4.9-7.09-8.72-14-17.6-20.93-26.41q-17.62-22.32-35.25-44.63c-1-1.27-1.68-3.42-4.15-1.39-7.47,6.16-15.09,12.14-22.65,18.18l-19.48,15.39c-8.63,6.72-17.19,13.53-25.92,20.12-2.34,1.77-2.41,2.9-.6,5.18q23.88,30,47.49,60.13a7.12,7.12,0,0,0,4.84,2.81,75.33,75.33,0,0,1,19.66,5.91,18.39,18.39,0,0,1,7.32,5.53c3.28,4.55,1.26,9.43-4.29,10.26-2.25.34-4.54.46-7.09.7,1.85,3.78,4.17,5.56,7.85,6.38,5.59,1.25,11.13,3.08,15.7,6.79,3.73,3,3.4,6.46-.47,8.83-1.38.85-4.09.46-4,2.2,0,1.49,1.93,2.94,3,4.4.5.67,1.09,1.29,1.53,2,.83,1.34,1.6,1.49,2.92.43q13.39-10.85,26.9-21.56C1301.6,829.08,1307.36,824.35,1313.06,819.54Zm-199.44-25.42.92.16-.37-.73a149.56,149.56,0,0,0-9-18.95c-5.26-9.28-13.69-12.7-23.92-11.15-13.32,2-22.4,15.12-14.84,28.08,4.44,7.6,7.8,15.84,11.7,23.76,2.86,5.82,5.8,11.61,8.92,17.83,1.37-2.16,2.26-3.74,3.32-5.2a30.85,30.85,0,0,1,3.7-4.56c3.14-3,6.33-2.19,7.87,1.83a21.83,21.83,0,0,1,1.14,9.55c-.38,4.76-1,9.52-1.55,15.17,1.34-1.42,2-2.28,2.86-3,2.13-1.9,4.54-2.82,7.36-1.77s3.67,3.34,4.06,5.93a24.24,24.24,0,0,1,.22,7.12c-.75,5.26-1.28,10.54-2,16.47,3.19-2.91,5.26-7.42,9.37-5.52s2.72,6.57,2.86,10.26c0,.14,0,.28-.06.42-.39,7.33-2.05,14.43-3.88,21.5-.32,1.23-.73,2.27-.06,3.6,3.07,6.06,6,12.18,9.38,19.07,2.39-9.2,7.75-14.72,15.84-17.59,7.88-2.81,15.55-1.59,23.56,2.08-.67-1.54-1-2.31-1.34-3.05q-16.12-32.62-32.23-65.25a16.16,16.16,0,0,0-5-6c-8.68-6.49-17.09-13.3-23.79-21.92-2.94-3.77-5.67-7.71-5.69-12.83,0-6.81,3-8.79,9.13-5.91A16.41,16.41,0,0,0,1113.62,794.12Zm-501-.21c.78-.31,1.57-.59,2.33-.95,4.2-2,6.1-1.19,7.65,3.16a9.73,9.73,0,0,1,.26,5.78c-1.25,5.09-4.25,9.13-7.59,12.94a131.45,131.45,0,0,1-21.63,19.31,15.81,15.81,0,0,0-5,6c-10.72,21.75-21.55,43.43-32.31,65.16-.43.88-1.52,1.71-.72,3.1,7.49-3.81,15.22-4.74,23.2-1.88s13.14,8.46,15.6,17.5c3.49-7.22,7.59-13.37,9.3-20.13,1-4.14-1.59-9.21-2.58-13.86-.06-.27-.17-.53-.22-.81a62.17,62.17,0,0,1-1.09-14.66c.17-2.28.52-4.67,2.95-5.63s3.93.74,5.62,2c1.07.81,1.54,2.36,3.46,2.63-.37-6.38-2.22-12.49-2-18.79.15-3.72.2-7.64,4.09-9.46s6.93.59,9.53,3.39c.14.15.51.1,1.06.18-.27-1.88-.58-3.66-.8-5.45-.65-5.44-1.35-10.89-.23-16.33.49-2.37,1.3-4.8,4.05-5.4,2.52-.55,4.29,1,5.66,2.89,2,2.7,3.81,5.51,5.89,8.55,7.24-14.83,14.44-29.4,21.46-44.05,3.33-6.95,2-13.86-3.39-19.32A23.06,23.06,0,0,0,621,774.38c-3.51,6-6.17,12.57-9.21,18.87l-.1,1Zm705-246c-.61-11.18-3.69-21.76-7.64-32.15a9.74,9.74,0,0,0-4.84-5.42c-12.22-6.69-25.26-11.4-38.33-16.05-7.39-2.62-14.92-5-21.5-9.42-5.4-3.63-7.07-8.47-5-13.76,1.73-4.5,5.85-6.42,12.25-5.79,7,.69,13.68,2.9,20.36,5,2.43.76,4.74,2.12,7.58,2-.65-2-2.12-2.91-3.32-4a182.9,182.9,0,0,0-38.58-27.57,247.63,247.63,0,0,0-44.33-18.94l-.46-.46c0,.29,0,.59,0,.89a11,11,0,0,0,.42,1.62c14.41,33.45,16.67,68.1,9.82,103.53a199.12,199.12,0,0,1-16.23,48.53c-1.31,2.73-1,3.77,2,4.47,3.83.9,7.65,2.06,11.56,2.13,14.11.25,27.47-1.65,36.4-14.51.62-.89,1.37-1.57,2.41-1a1.75,1.75,0,0,1,.55,2.25c-.36.9-.78,1.8-1.23,2.67q-20.35,39.18-40.73,78.35c-4.14,8-7.73,16.28-12.62,23.75-2.33,3.54-2,6.2-1.16,9.55,2.17,9.14,4.54,18.24,6.3,27.46.82,4.28,1.91,3.53,4.51,1.46,14.71-11.74,29.51-23.35,44.28-35,5.16-4.07,5.38-4,9.52,1.25,1.33,1.7,2.71,3.37,4.37,5.43,6.31-7.61,12.41-14.76,18.27-22.09,9.2-11.49,18.59-22.85,26.48-35.32,6.93-9.62,11.5-20.37,14.76-31.67C1317.92,579.66,1319.78,563.94,1317.57,547.9Zm-349-262.1c.38.19.8.36,1-.15,0-.13-.25-.42-.39-.63-3.39-13.51-9.63-25.74-16.59-38.07-3.81,4.57-7.37,8.56-8,14.23-.12,1.1-.11,2.49-1.75,2.26s-1.63-1.56-1.47-2.92c.54-4.65,2.79-8.47,5.62-12,2.36-3,4.93-5.79,6.6-9.23.93-1.91,1.73-4,.05-5.92a5.2,5.2,0,0,0-5.73-1.54,20.34,20.34,0,0,0-3.61,1.06c-7.84,3.92-15.54,2.54-23.22-.47-1.31-.52-3.1-1.09-2.41-2.77s2.29-.83,3.62-.3c4.6,1.83,9.35,3.13,14.35,2.53,5.47-.65,5.77-1.43,2.68-5.8-1.14-1.6-2.41-3.11-3.46-4.77s-2.33-1.94-4.27-1.42c-8,2.12-16.16,1.73-24.27.83a228.39,228.39,0,0,1-52.38-12c-2.16-.78-3-.58-3.47,2-1.07,6.21-2.4,12.4-4,18.48-2.7,9.93-6.44,19.44-13.1,27.51-1.17,1.4-2.57,2.82-4.67,2.14-1.85-.61-2.07-2.31-2.53-4-2.22-8.19-5-16.18-11.9-21.78-7.53-6.13-15.12-3.57-17.61,5.77-3.42,12.87,6.59,31.49,19.2,35.74,5.71,1.92,9.76-.23,12.09-6.43.52-1.38.46-3.49,2.38-3.49s2,2.15,2.35,3.55q17.92,63.12,35.84,126.23c.94,3.3.34,4.34-3.21,4.76a245.21,245.21,0,0,0-29.54,5.14c18.18,25,38.11,46.81,67.8,57.17a62.39,62.39,0,0,0,29.89,3c35.8-5.29,60.42-36.6,57.68-72.81-.15-2-.73-2.67-2.73-2.69-9.41-.07-18.81-.13-28.22.34-2.28.11-2.65.74-1.69,2.76,1.51,3.16,2.81,6.42,4.16,9.66.49,1.18.24,2.47-.91,2.89-.95.35-1.74-.65-2.15-1.59-1.73-4-3.65-7.91-5.09-12a24.7,24.7,0,0,0-9.49-12.32c-9.59-6.86-18.84-14.19-28.21-21.36-.93-.72-2.47-1.37-1.76-2.93s2.13-1.07,3.37-.91c1,.12,1.94.32,2.92.46,19,2.81,36.16-5.67,44.81-22.23a52.09,52.09,0,0,0,5.9-25.13c-.19-15.89-2.74-18.64-18.58-20.7-17.56-2.27-34.7,0-51.69,4.35-1.4.36-3.33,1.65-4-.42-.61-1.9,1.48-2.39,2.93-2.76C923.91,281.54,946.16,279,968.59,285.8ZM584.32,706c9.6,5.05,20,7.85,30.29,11.09,2.84.9,3.85,0,5.08-2.32,6.49-12.58,13.22-25,19.74-37.61,13.15-25.39,39.94-36.19,67-26.76,26.74,9.31,42.06,37.64,26,65.39-3.78,6.5-7,13.32-10.69,20.35,24.85,3,49.29,5.1,73.75,6.82,30.24,2.12,60.52,3.68,90.83,4.44,1.39,0,3.6-.65,3.47,1.79s-2.33,1.24-3.67,1.45c-4.07.62-8.35-1.39-12.27,1.37-7.69,5.4-15.57,10.54-23.21,16-1.87,1.33-5.6,2.54-4.25,5.34s4.94,1.42,7.31.72c16-4.69,31.27-11.12,44.26-21.72,14.14-11.55,15.18-26.61,3.47-40.6-7.76-9.27-17.8-15.36-28.75-20-13.54-5.79-27.55-10.33-41.45-15.15-35.66-12.36-70-27.41-100.95-49.33-20.87-14.79-41.9-29.19-65.71-39-1.15-.48-2.1-1.13-2.09-2.32,0-1.37,1.41-1.61,2.43-1.89a43.66,43.66,0,0,1,18.79-.73c9.3,1.54,18,5.37,27.12,7.56a57,57,0,0,0,24.17.63c2.44-.46,2.87-1.33,2.29-3.64-8.13-32.53-20.33-63.24-40.38-90.44-8-10.79-17-20.56-27.84-28.53-1.45-1.07-2.68-2.06-4.87-.92-30.65,16.08-59.06,35.21-83,60.46-.48.51-1.49.91-.84,2.13,8.32-1,16.67-2.06,25-2.91,7-.71,14-1.48,20.93.32,5.52,1.43,7.59,4.56,7.32,10.19s-4.25,8.26-8.88,10c-6.6,2.53-13.6,3.31-20.54,4.3-15.84,2.25-31.69,4.41-46.84,9.91-1.48.54-2.84,1-3.68,2.51-5.53,10-10.45,20.17-13.36,31.24-6.9,22.69-7.32,45.27,2.14,67.35C550.77,683.07,564.42,697.7,584.32,706ZM929.64,468.52c-1.07-.09-1.59-.18-2.1-.16-16.3.51-30.89-4.82-44.49-13.25C863.48,443,848.3,426.4,835.26,407.7c-1.39-2-2.47-2.69-5-2.08q-16.15,3.84-32.19,8.17c-3.2.86-3.18,2-1.95,4.59a215.77,215.77,0,0,0,26.61,42.78c39.74,50,97.48,67.52,156.89,47.35,21.94-7.44,39.44-20.37,48-42.76,9.4-24.61,5.87-49.09-2-73.36-.63-1.94-1.92-2.09-3.55-2.15-8.13-.3-16.27-.55-24.39-1-2.4-.14-2,1.44-2.15,2.69-.46,4.6-.55,9.25-1.24,13.81-2.75,18.26-9.46,34.58-23.71,47.06-7.07,6.2-15.4,10.13-24.36,13,7.76,7.49,10.57,13.32,10.13,20.86-.41,7-4.36,12.78-9.83,14.37s-12-.83-16-6.66C924.9,486.27,924.19,477.79,929.64,468.52ZM797.78,766.71l-1.61-.4c-1.95-.5-4.51,0-5.26-2.61-.79-2.77,1.14-4.52,3-6a40.64,40.64,0,0,1,6.84-4.86A4.14,4.14,0,0,0,803,748c-.36-2.28-2.45-1.34-3.77-1.46-6.43-.57-12.87-1-19.31-1.45-18.75-1.38-37.48-3.12-56.15-5.4-3-.36-4.43.61-5.77,3.26-6.2,12.25-12.62,24.4-19,36.57-8.1,15.45-21.18,24.08-38.1,26.69-5.08.79-7.31,3-8.22,7.86,3.51-.06,6.57-1.59,9.81-2.22,4.68-.91,9.33-2.17,14.14-1.57,5.7.72,7.1,4.23,3.55,8.78a31,31,0,0,1-7.27,6.34,162.3,162.3,0,0,1-22.4,12.47c-7.83,3.7-7.84,3.68-5.17,11.81.06.19.38.29.7.51,3-1.42,5.95-2.94,9-4.3,33-14.74,67.81-23.33,102.87-31.09,13.14-2.91,26.41-5.23,39.58-8,1.33-.27,3.59.43,3.7-2.33.31-8.56.77-17.11,1.15-25.66a2.12,2.12,0,0,0-1.22-2.36C794.43,773,794.45,773,797.78,766.71Zm384.88-92.6c10.22-19.72,19.85-38.53,29.76-57.19,1.7-3.19.78-3.83-2.08-4.55-10.68-2.66-21.32-5.49-32-8.21-6.15-1.56-12.32-3-19.11-4.72C1168.16,624.24,1175.89,648.6,1182.66,674.11ZM568.13,908.24a22.38,22.38,0,0,0-2.3.11c-8,.83-15.39,6.68-17.54,13.78a17.37,17.37,0,0,0,5.86,18.48c8.67,7.27,22.55,7,30.91-.67,7.69-7,7.94-18,.48-25.32C581,910.18,575.54,908.06,568.13,908.24Zm588.43,0a22.29,22.29,0,0,0-13.09,3.86c-11.57,7.66-11.35,23,.49,30.27a23.07,23.07,0,0,0,23.25,1.17c6.39-3.11,10.74-8.11,11-15.67C1178.61,916.82,1169.05,908.2,1156.56,908.22Zm103.66-54.49c-2.1-4.12-4.22-6.41-8.72-5.78-3.26.46-6.69-.23-10-.52-1.16-.11-2.77,0-2.69-1.9s1.62-1.47,2.81-1.39c2,.12,3.9.34,5.86.41,5,.17,10.09.44,15-1.15,2.69-.87,2.93-2.31.63-4a19.17,19.17,0,0,0-3.22-1.95,69.83,69.83,0,0,0-28.41-6.47,16.68,16.68,0,0,0-9.31,2.09c-3.94,2.43-4.58,5.31-1.95,9.12a22.48,22.48,0,0,0,8.21,7C1238.32,854.48,1249,854.62,1260.22,853.73Zm-20.72-26.1c-1.89-5.65-6.42-4.48-10-5.22-1.38-.28-3.21-.19-3-2.09s2.09-1.47,3.41-1.29a81,81,0,0,0,17.18.9c1.65-.12,3.58.09,4.27-1.92s-.69-3.47-2.1-4.64a17.22,17.22,0,0,0-3.51-2.29,68.92,68.92,0,0,0-32.1-7.18c-3.78.11-8.2.15-10.08,4.54-1.28,3,1.31,7,6.21,10C1218.78,824,1229,825.85,1239.5,827.63Zm-372-77.48-22.38-1a10.54,10.54,0,0,0-4.55.36c-11.59,4.55-23.18,9.12-33.9,15.57a69.51,69.51,0,0,0-6.42,4.71c-.64.5-1.34,1.24-1.06,2.13.33,1.07,1.38,1.28,2.37,1.36a25.86,25.86,0,0,0,8.31-1c19.63-4.9,38.09-13,56.59-21C866.74,751.1,867,750.71,867.47,750.15Zm340.13,36.27c-4.75-6-8.73-11.08-12.69-16.14a4.06,4.06,0,0,0-2.85-1.58c-9.77-1.26-19.58-1.92-29.38-.88-3,.31-7.52.25-7.8,4.2-.25,3.55,3.8,4.84,6.78,6C1176.09,783.54,1191.29,784.82,1207.6,786.42ZM953,485.39c-.45-6.6-2.65-12.33-8.48-16-5.08-3.23-10.67-1.64-13.52,3.66-4.21,7.79-.65,19.69,7.14,23.87,4.83,2.59,9.93,1.25,12.69-3.45A14.84,14.84,0,0,0,953,485.39ZM613,857.15c1.12,8.11,2.26,16.7,3.55,25.26a11.35,11.35,0,0,0,1.7,4.23c2.5,3.92,4.9,4.07,8,.69a14.06,14.06,0,0,0,4-10.23c-.21-8.52-3.43-16.05-7.52-23.26-1.52-2.67-3.21-6.55-7-5.32C612.12,849.68,613.41,853.72,613,857.15Zm499.76.76c0-6.95-.7-9.39-2.73-9.58-3.58-.35-5.1,2.59-6.57,5a56,56,0,0,0-7.73,21.09c-.47,3.25-.32,6.5,1.47,9.34,1.6,2.55,3,6.12,6.51,5.8,3.86-.36,5.25-4.07,5.77-7.4C1110.83,873.49,1111.83,864.75,1112.73,857.91Zm-19,8.73c1.67-7.38,3.53-14.71,4.94-22.13,1-5.23,1.62-10.57.69-15.91-.21-1.19-.16-2.88-1.48-3.3-1.6-.51-2.43,1.09-3.21,2.15a69.36,69.36,0,0,0-10.88,22.61C1081.2,859.28,1084.05,863.94,1093.72,866.64Zm-467.53-32.9c0,10.81,3.51,21,5.6,31.38.26,1.28.88,1.42,2.09,1.19,5.54-1.06,9.73-6.32,9-11.91-1.38-9.94-5.92-18.6-11.45-26.78-.76-1.13-1.73-2.8-3.16-2.39-1.6.45-1.56,2.4-1.71,3.9S626.29,832.2,626.19,833.74Zm14.86,4.86c12.33-5.7,24.28-11.05,34.56-19.43a4.75,4.75,0,0,0,.62-.56c1.06-1.25,3-2.53,2.14-4.15-.77-1.42-3-1.23-4.66-1.05-3.9.4-7.72,1.43-11.58,1.92-8.85,1.12-15,5.07-17.5,14C643.8,832.33,641.22,834.69,641.05,838.6Zm410.17-25.21c-.91.14-3-.46-3.74,1.33-.65,1.6,1.06,2.77,2.17,3.74,9.89,8.73,21.87,13.87,33.6,19.43,1.33.63,2,0,1.45-1.26-2.76-5.79-5.64-11.53-8.57-17.25a3,3,0,0,0-1.76-1C1067,816.15,1059.65,813.88,1051.22,813.39ZM616,900.4c-.2-9.3-2.37-17.41-7.78-24.43-1.15-1.49-2.53-4.05-4.24-3.45-1.88.65-1.07,3.48-1,5.33a94.7,94.7,0,0,0,5.3,27c.6,1.82,1.38,2.83-1.65,3.74s-3.46,5-4.59,7.85c-.4,1,1.07,1,1.82,1.06,4.62.64,9-2.2,10.7-6.95C615.85,907.11,615.73,903.44,616,900.4Zm506.79-22.17a26.72,26.72,0,0,0,0-3.35c-.12-.9.23-2.19-.91-2.54s-1.69.76-2.37,1.4c-8.31,7.8-12.4,27.34-7.9,37.69a10,10,0,0,0,10.46,6.12c.76-.1,2.24,0,1.88-1-1-2.85-1.8-7.11-4.28-7.76-4-1-2.42-2.78-1.79-4.68A97.56,97.56,0,0,0,1122.82,878.23ZM772,648.26c9.58,5,18.34,8.93,27.22,12.62.92.39,2.1.9,2.09-.74A187.53,187.53,0,0,0,800,639.39ZM959.57,853.63c3.47-4.43,6.43-8.1,9.25-11.87,1.85-2.46,2.95-14.44,1.18-15.11-3.19-1.21-6.25,1.24-9.46,1.73-.41.06-.79.3-1.2.36-1.62.23-2.1,1.07-2.35,2.76C955.9,838.74,957.28,845.64,959.57,853.63ZM865.17,849c-.17-5.16-.17-5.16-4.9-3.81-7.66,2.17-15.28,4.5-23,6.43-2.91.73-2.76,2.16-2,4.22.66,1.76.32,4.34,3.84,3.24,7.87-2.44,15.84-4.56,23.8-6.7C865,851.87,865.71,850.83,865.17,849Zm440.05-71.1a12.2,12.2,0,0,0,1.29-.67c3-2.27,6-4.57,9.07-6.82,1.12-.84.75-1.57.05-2.44-2.37-3-4.75-5.89-7-8.91-1-1.38-1.91-1-3.15-.22-10.6,6.81-10.64,6.93-2.72,16.45.44.54.86,1.11,1.34,1.62A14.88,14.88,0,0,0,1305.22,777.94ZM794.53,762.28c3.89.11,7.85,1.16,11.36-.79a232.63,232.63,0,0,1,23.12-11c1-.43,2.57-.35,2.84-1.7C816.41,745,805.28,753,794.53,762.28Zm536.17,25.49a8.37,8.37,0,0,0-.93.53c-3,2.46-6,4.94-9.09,7.4-1.22,1-.19,1.64.31,2.39,6.72,10,7.52,10.14,16.59,2.4.21-.18.43-.36.65-.52a1.66,1.66,0,0,0,.41-2.78c-2.29-2.81-4.52-5.68-6.8-8.5A6,6,0,0,0,1330.7,787.77ZM709.37,121.33c-.09-1.26-.59-1.82-2.47-2.35-15.08-4.22-29.35-2.56-42.66,6-1.33.85-3,1.93-1.91,3.58s2.45,0,3.52-.71a47.15,47.15,0,0,1,20.33-7.34A52.78,52.78,0,0,1,705.73,122C707.21,122.43,708.68,123,709.37,121.33Zm615.76,666.14c-.73-.92-1.16-1.47-1.6-2-2.16-2.57-4.47-5-6.43-7.74-1.67-2.34-3.13-2.23-5-.41a14.55,14.55,0,0,1-2.68,2c-2,1.2-1.76,2.41-.38,4,2.2,2.53,4.17,5.26,6.41,7.75.75.84,1.07,3.18,3,1.89C1320.77,791.33,1322.87,789.34,1325.13,787.47ZM748.42,630.86q-3.27-18.39-6.58-36.8c-.21-1.13-.78-2.37-2.16-2s-1.15,1.73-.94,2.81c2.29,12.11,4.6,24.22,6.16,36.45.14,1.15.64,2.5,1.93,2.33S748.26,632.11,748.42,630.86ZM992.17,816c4.42-1.28,8.75-2.1,12.68-3.84,2.34-1-.08-3.29-.25-5-.12-1.23-.31-2.53-2.32-1.89-3.72,1.18-7.52,2.17-11.29,3.19-1.34.37-1.91.94-1.24,2.37C990.56,812.57,990.12,814.94,992.17,816Zm-34.59,9.65c4-1.13,7.73-2.22,11.45-3.18a2.21,2.21,0,0,0,1.84-1.9,14.28,14.28,0,0,1,4.39-7.39c-5.23,1.18-10.27,2.66-15.35,4a2.12,2.12,0,0,0-1.89,2.28C958,821.4,957.75,823.31,957.58,825.67Zm227.88-245.13c-.1-.72-.19-1.51-.94-1.75a1.75,1.75,0,0,0-2.08,1c-3.12,5.63-6.23,11.26-9.28,16.93-.54,1-.67,2.31.55,2.89s1.84-.45,2.31-1.32c3-5.4,5.88-10.82,8.81-16.24C1185.09,581.58,1185.25,581.05,1185.46,580.54ZM818.59,860.39a48,48,0,0,0,14.18-.25c-1.19-6.39-1.19-6.4-6.83-3.55C823.48,857.83,821,859.12,818.59,860.39Zm162.82-49.11c2,1.57,2.54,3.42,3.35,5.11.39.82.83,1.43,1.88,1.06.54-.19,1.13-.45,1-1.07-.32-2-.46-4.29-1.83-5.81C984.86,809.47,983.34,810.68,981.41,811.28Zm31.11-2.69c-1.4-1.43.34-4.87-3-5.34-.93-.13-2.47.55-1.81,2.07.8,1.83-.24,4.76,2.78,5.28C1011.46,810.76,1012.91,810.56,1012.52,808.59Z"/><path class="cls-1" d="M659.08,226.69c14.5,7,29.76,8.64,45.56,6.44,1.79-.25,2.67-.06,3.07,2.12,7.68,41.88,33.58,66.8,73.49,78.55A143.31,143.31,0,0,0,820,319.73c-.15-.49-.14-1-.37-1.13-20-14.18-29.51-34.76-33.35-57.88-5.45-32.74,8.78-57.21,35.08-75.55a105,105,0,0,1,42-17.61c3.51-.63,7-.22,10.49-.37.85,0,2.16-.77,2.35.81s-1.1,1.65-2.25,1.71A79.58,79.58,0,0,0,854,173.14c-21.61,6.73-40.24,18-53.43,36.79-14.3,20.35-15.4,42.51-7.36,65.45,4.83,13.79,11.62,26.46,22.8,36.3a58.83,58.83,0,0,0,5.07,3.76c1.35.94,3.11,1.53,1.68,3.82-.78,1.27.67,2,1.36,2.74,7.4,8.15,15.48,15.5,25,21.08a6.77,6.77,0,0,1,3.47,4.36c4.18,15,8.37,30,12.77,44.9.8,2.73.42,3.62-2.41,4-31.22,4.32-61.63,12.11-91.43,22.18-54.27,18.33-106.57,41-153.79,73.94-29,20.25-53.52,44.95-70.16,76.62-10.35,19.69-16.64,40.55-15.37,63,2.12,37.55,20.14,64.27,55.08,79.1a201.78,201.78,0,0,0,25.84,8.83c2.86.78,2.87,1.76,1.65,4-3.48,6.4-7,12.81-10.17,19.36-6.64,13.71-5.62,27.12,2,40.22,1.11,1.93,4,3.38,2.76,6.09-1.75,3.67-2.75,7.65-7.07,9.95a264.64,264.64,0,0,0-46.38,31.2,180,180,0,0,0-23.68,24.44c-25.11-28-43.94-59.88-57.29-95a316.56,316.56,0,0,1-20.55-100.14c-3.6-87.86,23.19-165.78,77.16-234.71,13.68-17.47,29.51-33.13,43.17-50.65a554.76,554.76,0,0,0,55-86.15C640.22,268.35,649.64,247.52,659.08,226.69ZM661,426.56c-.05-1.2-1.77-1.52-4.22-.55a232.52,232.52,0,0,0-35.89,18.28A257.13,257.13,0,0,0,571,484.09c-1.19,1.23-3.37,2.89-1.62,4.53s2.79-.93,3.84-2a249.86,249.86,0,0,1,43.47-35.71,234.32,234.32,0,0,1,41.17-21.74C659.16,428.65,660.64,428.34,661,426.56Z"/><path class="cls-1" d="M611.58,919.47c5.27-3.34,7-8.57,7.44-14.37.26-4,.05-8.12.05-12.62,2.66.58,5.26,1,7.5-.86.76-.63,1.55-.34,2.31.18,15.24,10.67,33,14.57,50.7,18.21,28.8,5.9,58,8.5,87.32,10.26s58.64,2.39,88,2.26c10.25,0,20.49-.44,30.73-.69,1.89,0,3.43-.38,2.93,2.72-2.89,17.87-5.53,35.78-8.25,53.68-28.4-1.94-56.73-4.54-85-8.12-26.55-3.35-53.1-6.81-79.34-12.08C679.2,950.66,644.17,938.32,611.58,919.47Z"/><path class="cls-1" d="M970,980.76c-3.8-19.72-6.38-39.62-8.41-59.59-.19-1.87.14-2.68,2.31-2.85,20.43-1.56,40.86-3.12,61.27-5q38.16-3.42,76.1-8.86c3.8-.54,5.64-.43,6.24,4.21,1.13,8.65,7.08,12.88,15.77,12,2-.2,3,.08,4,1.89,3.66,6.58,5.6,14.13,11,19.75.46.48.41,1.6.34,2.4-.57,6.14-1.2,12.28-1.81,18.41a753.2,753.2,0,0,1-90,13.65C1021.19,979.15,995.59,980.22,970,980.76Z"/><path class="cls-1" d="M1219.59,937.42c-1.45-17.52-4.35-34.75-10.41-51.49,13.1-3.25,26-6.46,38.9-9.63a8.66,8.66,0,0,1,4.54.56,57.53,57.53,0,0,0,19.12,2.19c11.78-.53,21.8,3.88,31.11,10.52a334.68,334.68,0,0,1-68.95,41.77C1229.18,933.48,1224.36,935.4,1219.59,937.42Z"/><path class="cls-2" d="M1344.25,824.78c-.63,1.69-1.51,4.19-2.5,6.65-5.23,12.89-12.57,24.32-23.34,33.34-.75.63-1.52,1.23-2.32,1.8s-1.55.82-2.23,0-.21-1.65.12-2.38c.2-.47.76-.79,1.2-1.14,12.6-10.18,20.29-23.62,25.63-38.63.19-.52.32-1.07.52-1.59.38-1,1.11-1.81,2.2-1.43S1344.57,822.92,1344.25,824.78Z"/><path class="cls-2" d="M945.82,956.76c3,1.26,6.16,2.46,9.19,3.84a1.6,1.6,0,0,1,.64,2.18c-.47.83-1.4.8-2.23.49-2.74-1-5.48-2-8.17-3.18-.91-.38-1.75-1.18-1.29-2.28C944.16,957.34,945.06,957.17,945.82,956.76Z"/><path class="cls-2" d="M945.71,972c2.83.77,5.66,1.52,8.49,2.32a1.94,1.94,0,0,1,1.57,2.17c-.22,1.29-1.45,1.23-2.38,1-2.84-.72-5.65-1.57-8.48-2.34-1.22-.34-2.17-1.12-1.74-2.33C943.47,972,944.65,971.69,945.71,972Z"/><path class="cls-2" d="M947.24,946.21c1.94.75,4,1.39,5.73,2.93a1.41,1.41,0,0,1,.18.37c.36.64.69,1.38-.16,1.79-2.32,1.11-3.81-1.06-5.72-1.59a2.16,2.16,0,0,1-1.8-2.44C945.59,946.41,946.4,946.38,947.24,946.21Z"/><path class="cls-2" d="M1106.54,366a337.05,337.05,0,0,1,46.1,9.44c44.4,12.24,85.56,31,121.38,60.49,1.73,1.43,3.4,2.93,5.12,4.37,1.3,1.09,3.1,2.48,1.73,4.06s-2.67-.47-3.72-1.39A266.39,266.39,0,0,0,1234,412.33c-39.59-22.5-82.08-36.44-127.08-42.95-1.39-.2-3.67.25-3.69-1.82C1103.19,365.87,1105,365.79,1106.54,366Z"/><path class="cls-1" d="M540.26,596.18c2.91-11.07,7.83-21.28,13.36-31.24.84-1.51,2.2-2,3.68-2.51,15.15-5.5,31-7.66,46.84-9.91,6.94-1,13.94-1.77,20.54-4.3,4.63-1.76,8.61-4.29,8.88-10s-1.8-8.76-7.32-10.19c-6.92-1.8-14-1-20.93-.32-8.37.85-16.72,1.93-25,2.91-.65-1.22.36-1.62.84-2.13,24-25.25,52.37-44.38,83-60.46,2.19-1.14,3.42-.15,4.87.92,10.85,8,19.89,17.74,27.84,28.53,20,27.2,32.25,57.91,40.38,90.44.58,2.31.15,3.18-2.29,3.64a57,57,0,0,1-24.17-.63c-9.14-2.19-17.82-6-27.12-7.56a43.66,43.66,0,0,0-18.79.73c-1,.28-2.42.52-2.43,1.89,0,1.19.94,1.84,2.09,2.32,23.81,9.79,44.84,24.19,65.71,39,30.93,21.92,65.29,37,100.95,49.33,13.9,4.82,27.91,9.36,41.45,15.15,11,4.68,21,10.77,28.75,20,11.71,14,10.67,29.05-3.47,40.6-13,10.6-28.27,17-44.26,21.72-2.37.7-6,2-7.31-.72s2.38-4,4.25-5.34c7.64-5.47,15.52-10.61,23.21-16,3.92-2.76,8.2-.75,12.27-1.37,1.34-.21,3.54,1,3.67-1.45s-2.08-1.75-3.47-1.79c-30.31-.76-60.59-2.32-90.83-4.44-24.46-1.72-48.9-3.8-73.75-6.82,3.67-7,6.91-13.85,10.69-20.35,16.11-27.75.79-56.08-26-65.39-27-9.43-53.84,1.37-67,26.76-6.52,12.57-13.25,25-19.74,37.61-1.23,2.37-2.24,3.22-5.08,2.32-10.28-3.24-20.69-6-30.29-11.09,3-16.54,2.57-32.93-2.13-49.14C575,632,559.78,612.58,540.26,596.18Z"/><path class="cls-1" d="M968.59,285.8c-22.43-6.82-44.68-4.26-66.86,1.36-1.45.37-3.54.86-2.93,2.76.68,2.07,2.61.78,4,.42,17-4.39,34.13-6.62,51.69-4.35,15.84,2.06,18.39,4.81,18.58,20.7a52.09,52.09,0,0,1-5.9,25.13c-8.65,16.56-25.84,25-44.81,22.23-1-.14-1.94-.34-2.92-.46-1.24-.16-2.72-.52-3.37.91s.83,2.21,1.76,2.93c9.37,7.17,18.62,14.5,28.21,21.36a24.7,24.7,0,0,1,9.49,12.32c1.44,4.09,3.36,8,5.09,12,.41.94,1.2,1.94,2.15,1.59,1.15-.42,1.4-1.71.91-2.89-1.35-3.24-2.65-6.5-4.16-9.66-1-2-.59-2.65,1.69-2.76,9.41-.47,18.81-.41,28.22-.34,2,0,2.58.72,2.73,2.69,2.74,36.21-21.88,67.52-57.68,72.81a62.39,62.39,0,0,1-29.89-3c-29.69-10.36-49.62-32.19-67.8-57.17a245.21,245.21,0,0,1,29.54-5.14c3.55-.42,4.15-1.46,3.21-4.76q-18-63.09-35.84-126.23c-.39-1.4-.38-3.54-2.35-3.55s-1.86,2.11-2.38,3.49c-2.33,6.2-6.38,8.35-12.09,6.43-12.61-4.25-22.62-22.87-19.2-35.74,2.49-9.34,10.08-11.9,17.61-5.77,6.89,5.6,9.68,13.59,11.9,21.78.46,1.7.68,3.4,2.53,4,2.1.68,3.5-.74,4.67-2.14,6.66-8.07,10.4-17.58,13.1-27.51,1.65-6.08,3-12.27,4-18.48.45-2.63,1.31-2.83,3.47-2a228.39,228.39,0,0,0,52.38,12c8.11.9,16.27,1.29,24.27-.83,1.94-.52,3.18-.28,4.27,1.42s2.32,3.17,3.46,4.77c3.09,4.37,2.79,5.15-2.68,5.8-5,.6-9.75-.7-14.35-2.53-1.33-.53-3-1.32-3.62.3s1.1,2.25,2.41,2.77c7.68,3,15.38,4.39,23.22.47a20.34,20.34,0,0,1,3.61-1.06,5.2,5.2,0,0,1,5.73,1.54c1.68,1.93.88,4-.05,5.92-1.67,3.44-4.24,6.27-6.6,9.23-2.83,3.57-5.08,7.39-5.62,12-.16,1.36-.23,2.68,1.47,2.92s1.63-1.16,1.75-2.26c.59-5.67,4.15-9.66,8-14.23,7,12.33,13.2,24.56,16.59,38.07ZM805.24,244.91c.57.19.76.2.82.29,3.25,4.56,6.43,9.16,9.74,13.68.82,1.12,1.59,3.48,3.32,2.27s.25-3-.72-4.39c-2.88-4.13-5.57-8.43-8.73-12.35-2.32-2.9-2.27-4.76,1.17-6.36,1.26-.58,2.93-1.45,1.94-3s-2.5-.46-3.72.24a16.32,16.32,0,0,0-7,19.73c.44,1.24.93,2.61,2.46,2.12,1.3-.4,1.09-1.84.81-2.93C804.57,251.18,804.1,248.21,805.24,244.91Zm57.64-17.35c7.71,0,14.09-.79,20.21-3.07,1.31-.48,3-1,2.33-2.82-.6-1.48-2.18-.85-3.35-.4A48.3,48.3,0,0,1,869,224a50.37,50.37,0,0,1-10.91-.15c-1.2-.15-2.41.12-2.53,1.53s1.08,1.77,2.29,1.85Z"/><path class="cls-1" d="M1298.71,626.76c-7.89,12.47-17.28,23.83-26.48,35.32-5.86,7.33-12,14.48-18.27,22.09-1.66-2.06-3-3.73-4.37-5.43-4.14-5.3-4.36-5.32-9.52-1.25-14.77,11.66-29.57,23.27-44.28,35-2.6,2.07-3.69,2.82-4.51-1.46-1.76-9.22-4.13-18.32-6.3-27.46-.8-3.35-1.17-6,1.16-9.55,4.89-7.47,8.48-15.79,12.62-23.75q20.35-39.18,40.73-78.35c.45-.87.87-1.77,1.23-2.67a1.75,1.75,0,0,0-.55-2.25c-1-.61-1.79.07-2.41,1-8.93,12.86-22.29,14.76-36.4,14.51-3.91-.07-7.73-1.23-11.56-2.13-3-.7-3.32-1.74-2-4.47A199.12,199.12,0,0,0,1204,527.35c6.85-35.43,4.59-70.08-9.82-103.53a11,11,0,0,1-.42-1.62c.14-.14.28-.29.41-.44a248.4,248.4,0,0,1,44.33,18.95,182.9,182.9,0,0,1,38.58,27.57c1.2,1.12,2.67,2.06,3.32,4-2.84.13-5.15-1.23-7.58-2-6.68-2.11-13.33-4.32-20.36-5-6.4-.63-10.52,1.29-12.25,5.79-2,5.29-.37,10.13,5,13.76,6.58,4.43,14.11,6.8,21.5,9.42,13.07,4.65,26.11,9.36,38.33,16.05a9.74,9.74,0,0,1,4.84,5.42c4,10.39,7,21,7.64,32.15-6.33,7.88-12,16.15-15.88,25.56C1294.56,590.88,1293.1,608.62,1298.71,626.76Z"/><path class="cls-1" d="M929.64,468.52c-5.45,9.27-4.74,17.75.86,25.85,4,5.83,10.39,8.31,16,6.66s9.42-7.37,9.83-14.37c.44-7.54-2.37-13.37-10.13-20.86,9-2.9,17.29-6.83,24.36-13,14.25-12.48,21-28.8,23.71-47.06.69-4.56.78-9.21,1.24-13.81.12-1.25-.25-2.83,2.15-2.69,8.12.48,16.26.73,24.39,1,1.63.06,2.92.21,3.55,2.15,7.82,24.27,11.35,48.75,2,73.36-8.54,22.39-26,35.32-48,42.76-59.41,20.17-117.15,2.62-156.89-47.35a215.77,215.77,0,0,1-26.61-42.78c-1.23-2.61-1.25-3.73,1.95-4.59q16-4.32,32.19-8.17c2.57-.61,3.65.08,5,2.08,13,18.7,28.22,35.3,47.79,47.41,13.6,8.43,28.19,13.76,44.49,13.25C928.05,468.34,928.57,468.43,929.64,468.52Z"/><path class="cls-1" d="M797.78,766.71c-3.33,6.27-3.35,6.31,3.39,9.75a2.12,2.12,0,0,1,1.22,2.36c-.38,8.55-.84,17.1-1.15,25.66-.11,2.76-2.37,2.06-3.7,2.33-13.17,2.73-26.44,5.05-39.58,8-35.06,7.76-69.9,16.35-102.87,31.09-3.06,1.36-6.05,2.88-9,4.3-.32-.22-.64-.32-.7-.51-2.67-8.13-2.66-8.11,5.17-11.81A162.3,162.3,0,0,0,673,825.37a31,31,0,0,0,7.27-6.34c3.55-4.55,2.15-8.06-3.55-8.78-4.81-.6-9.46.66-14.14,1.57-3.24.63-6.3,2.16-9.81,2.22.91-4.82,3.14-7.07,8.22-7.86,16.92-2.61,30-11.24,38.1-26.69,6.38-12.17,12.8-24.32,19-36.57,1.34-2.65,2.76-3.62,5.77-3.26,18.67,2.28,37.4,4,56.15,5.4,6.44.47,12.88.88,19.31,1.45,1.32.12,3.41-.82,3.77,1.46a4.14,4.14,0,0,1-2.32,4.83,40.64,40.64,0,0,0-6.84,4.86c-1.83,1.52-3.76,3.27-3,6,.75,2.62,3.31,2.11,5.26,2.61Z"/><path class="cls-1" d="M611.75,793.25c3-6.3,5.7-12.83,9.21-18.87a23.06,23.06,0,0,1,36.14-4.56c5.36,5.46,6.72,12.37,3.39,19.32-7,14.65-14.22,29.22-21.46,44.05-2.08-3-3.91-5.85-5.89-8.55-1.37-1.87-3.14-3.44-5.66-2.89-2.75.6-3.56,3-4.05,5.4-1.12,5.44-.42,10.89.23,16.33.22,1.79.53,3.57.8,5.45-.55-.08-.92,0-1.06-.18-2.6-2.8-5.52-5.28-9.53-3.39s-3.94,5.74-4.09,9.46c-.24,6.3,1.61,12.41,2,18.79-1.92-.27-2.39-1.82-3.46-2.63-1.69-1.29-3.33-2.92-5.62-2s-2.78,3.35-2.95,5.63a62.17,62.17,0,0,0,1.09,14.66c0,.28.16.54.22.81,1,4.65,3.62,9.72,2.58,13.86-1.71,6.76-5.81,12.91-9.3,20.13-2.46-9-7.61-14.63-15.6-17.5s-15.71-1.93-23.2,1.88c-.8-1.39.29-2.22.72-3.1,10.76-21.73,21.59-43.41,32.31-65.16a15.81,15.81,0,0,1,5-6,131.45,131.45,0,0,0,21.63-19.31c3.34-3.81,6.34-7.85,7.59-12.94a9.73,9.73,0,0,0-.26-5.78C621,791.77,619.1,791,614.9,793c-.76.36-1.55.64-2.33.95Z"/><path class="cls-1" d="M1113.62,794.13c-.53-.2-1.07-.37-1.57-.61-6.09-2.88-9.15-.9-9.13,5.91,0,5.12,2.75,9.06,5.69,12.83,6.7,8.62,15.11,15.43,23.79,21.92a16.16,16.16,0,0,1,5,6q16.05,32.66,32.23,65.25c.37.74.67,1.51,1.34,3.05-8-3.67-15.68-4.89-23.56-2.08-8.09,2.87-13.45,8.39-15.84,17.59-3.37-6.89-6.31-13-9.38-19.07-.67-1.33-.26-2.37.06-3.6,1.83-7.07,3.49-14.17,3.88-21.5,0-.14.06-.28.06-.42-.14-3.69,1.18-8.4-2.86-10.26s-6.18,2.61-9.37,5.52c.69-5.93,1.22-11.21,2-16.47a24.24,24.24,0,0,0-.22-7.12c-.39-2.59-1.35-4.91-4.06-5.93s-5.23-.13-7.36,1.77c-.81.72-1.52,1.58-2.86,3,.59-5.65,1.17-10.41,1.55-15.17a21.83,21.83,0,0,0-1.14-9.55c-1.54-4-4.73-4.79-7.87-1.83a30.85,30.85,0,0,0-3.7,4.56c-1.06,1.46-2,3-3.32,5.2-3.12-6.22-6.06-12-8.92-17.83-3.9-7.92-7.26-16.16-11.7-23.76-7.56-13,1.52-26.07,14.84-28.08,10.23-1.55,18.66,1.87,23.92,11.15a149.56,149.56,0,0,1,9,18.95A5,5,0,0,0,1113.62,794.13Z"/><path class="cls-1" d="M1295.46,833.32q-13.47,10.75-26.9,21.56c-1.32,1.06-2.09.91-2.92-.43-.44-.71-1-1.33-1.53-2-1.09-1.46-3-2.91-3-4.4,0-1.74,2.66-1.35,4-2.2,3.87-2.37,4.2-5.8.47-8.83-4.57-3.71-10.11-5.54-15.7-6.79-3.68-.82-6-2.6-7.85-6.38,2.55-.24,4.84-.36,7.09-.7,5.55-.83,7.57-5.71,4.29-10.26a18.39,18.39,0,0,0-7.32-5.53,75.33,75.33,0,0,0-19.66-5.91,7.12,7.12,0,0,1-4.84-2.81q-23.67-30.12-47.49-60.13c-1.81-2.28-1.74-3.41.6-5.18,8.73-6.59,17.29-13.4,25.92-20.12l8.91,11.43c-4.22,3.44-8.44,6.89-12.68,10.3-1.28,1-2.24,1.73-.76,3.58q20.27,25.47,40.33,51.09c1.14,1.46,1.91,1.48,3.33.33,4.35-3.51,8.84-6.86,13.27-10.27Z"/><path class="cls-1" d="M1220.12,697.82c7.56-6,15.18-12,22.65-18.18,2.47-2,3.14.12,4.15,1.39q17.65,22.29,35.25,44.63c6.95,8.81,13.84,17.69,20.93,26.41,1.76,2.16,1.77,3.32-.59,4.9-2.91,1.94-5.49,4.39-8.36,6.38s-2.74,3.59-.64,6.14c10,12.15,19.69,24.52,29.75,36.61,2.4,2.89,2.26,4.37-.81,6.35-3.29,2.12-6.28,4.71-9.39,7.09l-41.51-54.42c2.38-2,4.64-4.08,7.16-5.83s2.44-2.95.61-5.24q-19.44-24.37-38.61-49c-1.72-2.2-2.9-2.89-5.17-.71a68.63,68.63,0,0,1-6.68,5.08Z"/><path class="cls-1" d="M1182.66,674.11c-6.77-25.51-14.5-49.87-23.42-74.67,6.79,1.67,13,3.16,19.11,4.72,10.67,2.72,21.31,5.55,32,8.21,2.86.72,3.78,1.36,2.08,4.55C1202.51,635.58,1192.88,654.39,1182.66,674.11Z"/><path class="cls-1" d="M568.13,908.24c7.41-.18,12.9,1.94,17.41,6.38,7.46,7.32,7.21,18.29-.48,25.32-8.36,7.63-22.24,7.94-30.91.67a17.37,17.37,0,0,1-5.86-18.48c2.15-7.1,9.58-13,17.54-13.78A22.38,22.38,0,0,1,568.13,908.24Z"/><path class="cls-1" d="M1156.56,908.22c12.49,0,22,8.6,21.66,19.63-.27,7.56-4.62,12.56-11,15.67a23.07,23.07,0,0,1-23.25-1.17c-11.84-7.27-12.06-22.61-.49-30.27A22.29,22.29,0,0,1,1156.56,908.22Z"/><path class="cls-1" d="M898.55,703.64c15.06-2.8,28.72-8.6,40.36-18.75a35.15,35.15,0,0,0,9.52-12.18c3.49-7.94,1.39-15.62-5.58-20.88-6.22-4.69-13.5-6-21-6.58-4.33-.37-8.71-.42-13-1.08-15-2.31-24.14-16.39-21.27-32.35,1.76-9.73,7.14-17.27,14.4-23.63a69.57,69.57,0,0,1,14.66-9.82c1.07-.54,2.37-1,3.05,0,.86,1.41-.36,2.24-1.55,2.89-6.93,3.8-13.5,8.11-18.71,14.16-7.61,8.86-11.12,18.77-7.45,30.4,2.91,9.2,9.53,14.34,19.09,15.28,7.39.73,14.93.47,22.14,2.54,10.15,2.91,18.34,8.09,20.07,19.6.93,6.21-1.41,11.67-5.12,16.44-10.44,13.44-24.73,20.82-40.75,25.32-2,.57-4.13.78-6.2,1.16A6.54,6.54,0,0,1,898.55,703.64Z"/><path class="cls-1" d="M717.77,524.22c17.63-2.27,25.17-17.5,16.31-33-2.09-3.66-3.69-7.38-1.14-11.44s6.71-5.94,11.49-5.64c8.26.51,15.73,3.83,23.14,7.19a129.25,129.25,0,0,1,14.65,8.24c7.64,4.74,14.22,1.14,14.76-8,.3-5.17-1.78-9.58-4.7-13.64-5-7-11.83-11.91-18.5-17-9.36-7.2-19.58-13-29.77-18.92l3.7-1.38c15.92,8.19,30.61,18.15,43.41,30.72a30.51,30.51,0,0,1,8.75,15.08,17.92,17.92,0,0,1-.12,8.73c-2.59,9.51-10.51,12.85-18.76,7.56-9.38-6-19.16-11.06-29.91-14.09a22.78,22.78,0,0,0-8.28-1.18c-6.59.63-9.44,5.57-6.11,11.24,3.46,5.89,5.47,12,4.26,18.83C739,518.39,730.7,526,719.38,527.36A5.45,5.45,0,0,1,717.77,524.22Z"/><path class="cls-1" d="M867.47,750.15c-.52.56-.73,1-1,1.08-18.5,8-37,16.07-56.59,21a25.86,25.86,0,0,1-8.31,1c-1-.08-2-.29-2.37-1.36-.28-.89.42-1.63,1.06-2.13a69.51,69.51,0,0,1,6.42-4.71c10.72-6.45,22.31-11,33.9-15.57a10.54,10.54,0,0,1,4.55-.36Z"/><path class="cls-1" d="M772,648.26,800,639.39a187.53,187.53,0,0,1,1.23,20.75c0,1.64-1.17,1.13-2.09.74C790.29,657.19,781.53,653.26,772,648.26Z"/><path class="cls-1" d="M966.42,888.93c1.57.7,3,0,4.45-.45a101,101,0,0,0,25.29-12.21c2.86-1.86,5.23-4.23,6.09-7.76,1-4-.54-6.94-4.44-8.23-4.4-1.45-8.88-.59-13.34-.35.86-1.23,1.71-2.47,2.57-3.71,3.34.24,6.68-.34,10,.42,7.69,1.76,10.92,8.24,7.48,15.32a12.21,12.21,0,0,1-3.54,4.66c-10.94,8.06-22.74,14.26-36.32,16.56l1.21-3.51.56-.78Z"/><path class="cls-1" d="M865.17,849c.54,1.79-.18,2.83-2.25,3.38-8,2.14-15.93,4.26-23.8,6.7-3.52,1.1-3.18-1.48-3.84-3.24-.77-2.06-.92-3.49,2-4.22,7.72-1.93,15.34-4.26,23-6.43C865,843.88,865,843.88,865.17,849Z"/><path class="cls-1" d="M1305.22,777.94a14.88,14.88,0,0,1-1.16-1c-.48-.51-.9-1.08-1.34-1.62-7.92-9.52-7.88-9.64,2.72-16.45,1.24-.8,2.1-1.16,3.15.22,2.29,3,4.67,6,7,8.91.7.87,1.07,1.6-.05,2.44-3,2.25-6,4.55-9.07,6.82A12.2,12.2,0,0,1,1305.22,777.94Z"/><path class="cls-1" d="M794.53,762.28c10.75-9.27,21.88-17.3,37.32-13.47-.27,1.35-1.82,1.27-2.84,1.7a232.63,232.63,0,0,0-23.12,11C802.38,763.44,798.42,762.39,794.53,762.28Z"/><path class="cls-1" d="M1012.63,752.56c-17.48,10.17-35.37,19.65-52.19,30.94a6.25,6.25,0,0,1,0-4.16c16.49-10.54,33.58-20.07,50.62-29.67Z"/><path class="cls-1" d="M1330.7,787.77a6,6,0,0,1,1.14.92c2.28,2.82,4.51,5.69,6.8,8.5a1.66,1.66,0,0,1-.41,2.78c-.22.16-.44.34-.65.52-9.07,7.74-9.87,7.62-16.59-2.4-.5-.75-1.53-1.4-.31-2.39,3-2.46,6.06-4.94,9.09-7.4A8.37,8.37,0,0,1,1330.7,787.77Z"/><path class="cls-1" d="M709.37,121.33c-.69,1.69-2.16,1.1-3.64.71a52.78,52.78,0,0,0-19.55-1.57,47.15,47.15,0,0,0-20.33,7.34c-1.07.68-2.38,2.43-3.52.71s.58-2.73,1.91-3.58c13.31-8.52,27.58-10.18,42.66-6C708.78,119.51,709.28,120.07,709.37,121.33Z"/><path class="cls-1" d="M1325.13,787.47c-2.26,1.87-4.36,3.86-6.72,5.48-1.89,1.29-2.21-1.05-3-1.89-2.24-2.49-4.21-5.22-6.41-7.75-1.38-1.58-1.64-2.79.38-4a14.55,14.55,0,0,0,2.68-2c1.87-1.82,3.33-1.93,5,.41,2,2.72,4.27,5.17,6.43,7.74C1324,786,1324.4,786.55,1325.13,787.47Z"/><path class="cls-1" d="M992.17,816c-2-1.08-1.61-3.45-2.42-5.17-.67-1.43-.1-2,1.24-2.37,3.77-1,7.57-2,11.29-3.19,2-.64,2.2.66,2.32,1.89.17,1.71,2.59,4,.25,5C1000.92,813.92,996.59,814.74,992.17,816Z"/><path class="cls-1" d="M957.58,825.67c.17-2.36.38-4.27.44-6.19a2.12,2.12,0,0,1,1.89-2.28c5.08-1.34,10.12-2.82,15.35-4a14.28,14.28,0,0,0-4.39,7.39,2.21,2.21,0,0,1-1.84,1.9C965.31,823.45,961.62,824.54,957.58,825.67Z"/><path class="cls-1" d="M818.59,860.39c2.45-1.27,4.89-2.56,7.35-3.8,5.64-2.85,5.64-2.84,6.83,3.55A48,48,0,0,1,818.59,860.39Z"/><path class="cls-1" d="M981.41,811.28c1.93-.6,3.45-1.81,4.43-.71,1.37,1.52,1.51,3.77,1.83,5.81.1.62-.49.88-1,1.07-1,.37-1.49-.24-1.88-1.06C984,814.7,983.41,812.85,981.41,811.28Z"/><path class="cls-1" d="M1012.52,808.59c.39,2-1.06,2.17-2,2-3-.52-2-3.45-2.78-5.28-.66-1.52.88-2.2,1.81-2.07C1012.86,803.72,1011.12,807.16,1012.52,808.59Z"/><path class="cls-1" d="M612.57,793.91l-.92.34c0-.33.07-.66.1-1Z"/><path class="cls-1" d="M1193.78,422.2c0-.3,0-.6,0-.89l.46.45C1194.06,421.91,1193.92,422.06,1193.78,422.2Z"/><path class="cls-1" d="M969.22,285c.14.21.44.5.39.63-.22.51-.64.34-1,.15Z"/><path class="cls-1" d="M1114.17,793.55c.12.24.24.49.37.73l-.92-.16A5.9,5.9,0,0,1,1114.17,793.55Z"/><path class="cls-2" d="M661,426.56c-.33,1.78-1.81,2.09-3.08,2.6a234.32,234.32,0,0,0-41.17,21.74,249.86,249.86,0,0,0-43.47,35.71c-1,1.08-2.23,3.52-3.84,2s.43-3.3,1.62-4.53a257.13,257.13,0,0,1,49.83-39.8A232.52,232.52,0,0,1,656.75,426C659.2,425,660.92,425.36,661,426.56Z"/><path class="cls-1" d="M1086.87,577.62c-4.82-.63-9.91-.37-14.87-1.51-8.55-2-11.69-7.08-9.38-15.47.48-1.76,1.17-3.46,1.77-5.18,3.73-10.76-4-20.11-15.43-18.72a50.52,50.52,0,0,0-15.94,5.17,335,335,0,0,0-32,17.74c-4.41,2.77-8.94,5.25-14.29,5.81-6.92.71-12.3-3.93-12.79-10.83-.61-8.4,3.28-14.89,8.44-20.87,10-11.6,23.11-18.51,37-24.2,12.07-4.94,24.55-8.8,36.43-14.24,9.51-4.37,18.32-9.76,25.83-17.13,1-1,2.14-2.49,3.41-1,1.11,1.3-.28,2.55-1.28,3.55-9.32,9.31-20.69,15.31-32.69,20.3-13.2,5.5-27,9.57-39.86,15.83-11.52,5.58-21.93,12.55-29.45,23.18-2.89,4.1-4.81,8.57-4.58,13.72.25,5.44,3.57,8.49,9,8.31,3.93-.12,7.34-1.78,10.58-3.78,12.54-7.75,25.25-15.2,38.76-21.17,6.22-2.75,12.61-4.76,19.57-3.23,11.51,2.54,16.45,11.34,12.58,22.45-.6,1.72-1.25,3.43-1.76,5.17-1.87,6.44.06,9.92,6.75,11.31,11,2.3,22,1.52,33-.58,2-.38,5.42-2.43,6,.14.67,3-3.26,2.45-5.36,3C1100,577,1093.49,577,1086.87,577.62Z"/><path class="cls-1" d="M1144.49,436.14c-9.91-.34-19.45,2.32-29.14,3.75-7.66,1.14-15.32,1.92-23,.44-10.33-2-16.3-8.65-15.4-17.27.71-6.8,6.68-12.85,14.57-14.45a37,37,0,0,1,11.75-.08c1.29.15,3.18.35,2.79,2.32-.32,1.63-1.83,1.21-3.13,1-4.34-.59-8.67-.84-12.91.66-6.06,2.16-9.89,7.12-9.8,12.78.09,4.85,3.49,8.72,9.72,10.78,10,3.31,20,1.41,30-.35,11.88-2.11,23.75-4.54,35.89-2.11,9.82,2,17.32,7.19,21.78,16.24,5.61,11.42,1.08,23.26-10.61,28.23a33.34,33.34,0,0,1-21.44,1.45,94,94,0,0,1-15.86-5.54c-1.29-.57-3.56-.93-2.74-2.95s2.66-.75,4-.16c6.43,2.85,13,5.31,20,6.25a26.1,26.1,0,0,0,18.1-4c7.14-4.6,9.51-12.73,6-20.71-4.67-10.67-13.56-15.21-24.62-16.31C1148.44,436,1146.46,436.14,1144.49,436.14Z"/><path class="cls-1" d="M1143.56,713.65c-7.59-.14-15.78-5.63-23.45-12.24-.81-.7-1.42-1.71-.76-2.56.83-1.07,2.08-.65,3,.11a69.37,69.37,0,0,0,9.88,7.15c6.86,3.88,14,5.66,21.77,3a17.33,17.33,0,0,0,6.09-3.67c7.3-6.66,5.82-14-3.52-17.09-7.08-2.38-14.54-3-21.84-4.3-9.38-1.72-17.84-5.14-23.44-13.39-4.34-6.4-4.7-13.11-.56-19.76a118.45,118.45,0,0,1,17.42-21.57c.85-.84,1.81-2.33,3.12-1.12s.2,2.54-.82,3.53a124.33,124.33,0,0,0-15.54,18.79c-5.79,8.53-4.55,16.31,3.4,23,6.33,5.31,14,6.84,21.79,8.05,6.09.94,12.24,1.69,18.08,3.79,11.14,4,13.22,13.51,4.83,21.89C1158.48,711.76,1152.94,713.72,1143.56,713.65Z"/><path class="cls-2" d="M805.24,244.91c-1.14,3.3-.67,6.27.1,9.27.28,1.09.49,2.53-.81,2.93-1.53.49-2-.88-2.46-2.12a16.32,16.32,0,0,1,7-19.73c1.22-.7,2.78-1.73,3.72-.24s-.68,2.45-1.94,3c-3.44,1.6-3.49,3.46-1.17,6.36,3.16,3.92,5.85,8.22,8.73,12.35,1,1.38,2.44,3.18.72,4.39s-2.5-1.15-3.32-2.27c-3.31-4.52-6.49-9.12-9.74-13.68C806,245.11,805.81,245.1,805.24,244.91Z"/><path class="cls-2" d="M862.88,227.56l-5.08-.33c-1.21-.08-2.4-.4-2.29-1.85s1.33-1.68,2.53-1.53A50.37,50.37,0,0,0,869,224a48.3,48.3,0,0,0,13.12-2.73c1.17-.45,2.75-1.08,3.35.4.71,1.78-1,2.34-2.33,2.82C877,226.77,870.59,227.53,862.88,227.56Z"/><path class="cls-2" d="M1209.55,724.64c6.71-4.72,13.11-9.84,19.31-15.19a68.63,68.63,0,0,0,6.68-5.08c2.27-2.18,3.45-1.49,5.17.71q19.18,24.58,38.61,49c1.83,2.29,1.8,3.57-.61,5.24s-4.78,3.87-7.16,5.83L1253,779.67c-4.43,3.41-8.92,6.76-13.27,10.27-1.42,1.15-2.19,1.13-3.33-.33q-20.1-25.59-40.33-51.09c-1.48-1.85-.52-2.56.76-3.58C1201.11,731.53,1205.33,728.08,1209.55,724.64Zm39.18,48.88A13.59,13.59,0,1,0,1235,760,13.53,13.53,0,0,0,1248.73,773.52Zm-6.68-38.15a13.57,13.57,0,0,0-13.62-13.59,13.41,13.41,0,0,0-13.66,13.5,13.64,13.64,0,0,0,27.28.09Z"/><path class="cls-1" d="M1248.73,773.52a13.59,13.59,0,1,1,13.56-13.66A13.52,13.52,0,0,1,1248.73,773.52Zm0-23.84a10.26,10.26,0,1,0,10.29,10.47A10.6,10.6,0,0,0,1248.77,749.68Z"/><path class="cls-1" d="M1242.05,735.37a13.64,13.64,0,0,1-27.28-.09,13.41,13.41,0,0,1,13.66-13.5A13.57,13.57,0,0,1,1242.05,735.37ZM1228.35,725c-5.61,0-10.54,5-10.42,10.43a10.45,10.45,0,0,0,20.89-.1A10.48,10.48,0,0,0,1228.35,725Z"/><path class="cls-2" d="M1248.77,749.68a10.26,10.26,0,1,1-10.62,10.18A10.5,10.5,0,0,1,1248.77,749.68Zm-5.13,10.3c.21,3,1.84,4.94,5,4.93s5-1.95,4.9-5.09a4.53,4.53,0,0,0-4.72-4.84C1245.66,754.89,1243.94,756.71,1243.64,760Z"/><path class="cls-2" d="M1228.35,725a10.48,10.48,0,0,1,10.47,10.33,10.45,10.45,0,0,1-20.89.1C1217.81,730,1222.74,725,1228.35,725Zm-4.83,9.52c0,4,2,5.76,5,5.73s4.9-2.07,4.81-5.2a4.42,4.42,0,0,0-4.81-4.68C1225.35,730.35,1223.6,732,1223.52,734.51Z"/><path class="cls-1" d="M1243.64,760c.3-3.27,2-5.09,5.15-5a4.53,4.53,0,0,1,4.72,4.84c0,3.14-1.77,5.07-4.9,5.09S1243.85,763,1243.64,760Z"/><path class="cls-1" d="M1223.52,734.51c.08-2.5,1.83-4.16,5-4.15a4.42,4.42,0,0,1,4.81,4.68c.09,3.13-1.77,5.16-4.81,5.2S1223.55,738.55,1223.52,734.51Z"/></svg>